ISO-10303-21;
HEADER;
FILE_DESCRIPTION(('KiCad electronic assembly'),'2;1');
FILE_NAME('bp.step','2026-06-06T18:22:33',('Pcbnew'),('Kicad'),
  'Open CASCADE STEP processor 7.9','KiCad to STEP converter','Unknown'
  );
FILE_SCHEMA(('AUTOMOTIVE_DESIGN { 1 0 10303 214 1 1 1 1 }'));
ENDSEC;
DATA;
#1 = APPLICATION_PROTOCOL_DEFINITION('international standard',
  'automotive_design',2000,#2);
#2 = APPLICATION_CONTEXT(
  'core data for automotive mechanical design processes');
#3 = SHAPE_DEFINITION_REPRESENTATION(#4,#10);
#4 = PRODUCT_DEFINITION_SHAPE('','',#5);
#5 = PRODUCT_DEFINITION('design','',#6,#9);
#6 = PRODUCT_DEFINITION_FORMATION('','',#7);
#7 = PRODUCT('bp 1','bp 1','',(#8));
#8 = PRODUCT_CONTEXT('',#2,'mechanical');
#9 = PRODUCT_DEFINITION_CONTEXT('part definition',#2,'design');
#10 = SHAPE_REPRESENTATION('',(#11,#15,#19,#23),#27);
#11 = AXIS2_PLACEMENT_3D('',#12,#13,#14);
#12 = CARTESIAN_POINT('',(0.,0.,0.));
#13 = DIRECTION('',(0.,0.,1.));
#14 = DIRECTION('',(1.,0.,-0.));
#15 = AXIS2_PLACEMENT_3D('',#16,#17,#18);
#16 = CARTESIAN_POINT('',(0.,0.,0.));
#17 = DIRECTION('',(0.,0.,1.));
#18 = DIRECTION('',(1.,0.,-0.));
#19 = AXIS2_PLACEMENT_3D('',#20,#21,#22);
#20 = CARTESIAN_POINT('',(0.,0.,0.));
#21 = DIRECTION('',(0.,0.,1.));
#22 = DIRECTION('',(1.,0.,-0.));
#23 = AXIS2_PLACEMENT_3D('',#24,#25,#26);
#24 = CARTESIAN_POINT('',(0.,0.,0.));
#25 = DIRECTION('',(0.,0.,1.));
#26 = DIRECTION('',(1.,0.,-0.));
#27 = ( GEOMETRIC_REPRESENTATION_CONTEXT(3) 
GLOBAL_UNCERTAINTY_ASSIGNED_CONTEXT((#31)) GLOBAL_UNIT_ASSIGNED_CONTEXT(
(#28,#29,#30)) REPRESENTATION_CONTEXT('Context #1',
  '3D Context with UNIT and UNCERTAINTY') );
#28 = ( LENGTH_UNIT() NAMED_UNIT(*) SI_UNIT(.MILLI.,.METRE.) );
#29 = ( NAMED_UNIT(*) PLANE_ANGLE_UNIT() SI_UNIT($,.RADIAN.) );
#30 = ( NAMED_UNIT(*) SI_UNIT($,.STERADIAN.) SOLID_ANGLE_UNIT() );
#31 = UNCERTAINTY_MEASURE_WITH_UNIT(LENGTH_MEASURE(1.E-07),#28,
  'distance_accuracy_value','confusion accuracy');
#32 = PRODUCT_RELATED_PRODUCT_CATEGORY('part',$,(#7));
#33 = SHAPE_DEFINITION_REPRESENTATION(#34,#40);
#34 = PRODUCT_DEFINITION_SHAPE('','',#35);
#35 = PRODUCT_DEFINITION('design','',#36,#39);
#36 = PRODUCT_DEFINITION_FORMATION('','',#37);
#37 = PRODUCT('J11_soldermask','J11_soldermask','',(#38));
#38 = PRODUCT_CONTEXT('',#2,'mechanical');
#39 = PRODUCT_DEFINITION_CONTEXT('part definition',#2,'design');
#40 = MANIFOLD_SURFACE_SHAPE_REPRESENTATION('',(#11,#41),#303);
#41 = SHELL_BASED_SURFACE_MODEL('',(#42));
#42 = OPEN_SHELL('',(#43));
#43 = ADVANCED_FACE('',(#44,#158,#228),#298,.T.);
#44 = FACE_BOUND('',#45,.F.);
#45 = EDGE_LOOP('',(#46,#56,#64,#72,#80,#88,#96,#104,#112,#120,#128,#136
    ,#144,#152));
#46 = ORIENTED_EDGE('',*,*,#47,.T.);
#47 = EDGE_CURVE('',#48,#50,#52,.T.);
#48 = VERTEX_POINT('',#49);
#49 = CARTESIAN_POINT('',(25.,-25.5,1.56));
#50 = VERTEX_POINT('',#51);
#51 = CARTESIAN_POINT('',(25.5,-25.,1.56));
#52 = LINE('',#53,#54);
#53 = CARTESIAN_POINT('',(25.,-25.5,1.56));
#54 = VECTOR('',#55,1.);
#55 = DIRECTION('',(0.707106781187,0.707106781187,0.));
#56 = ORIENTED_EDGE('',*,*,#57,.T.);
#57 = EDGE_CURVE('',#50,#58,#60,.T.);
#58 = VERTEX_POINT('',#59);
#59 = CARTESIAN_POINT('',(103.24,-25.,1.56));
#60 = LINE('',#61,#62);
#61 = CARTESIAN_POINT('',(25.5,-25.,1.56));
#62 = VECTOR('',#63,1.);
#63 = DIRECTION('',(1.,0.,0.));
#64 = ORIENTED_EDGE('',*,*,#65,.T.);
#65 = EDGE_CURVE('',#58,#66,#68,.T.);
#66 = VERTEX_POINT('',#67);
#67 = CARTESIAN_POINT('',(103.74,-25.5,1.56));
#68 = LINE('',#69,#70);
#69 = CARTESIAN_POINT('',(103.24,-25.,1.56));
#70 = VECTOR('',#71,1.);
#71 = DIRECTION('',(0.707106781187,-0.707106781187,0.));
#72 = ORIENTED_EDGE('',*,*,#73,.T.);
#73 = EDGE_CURVE('',#66,#74,#76,.T.);
#74 = VERTEX_POINT('',#75);
#75 = CARTESIAN_POINT('',(103.74,-40.917893,1.56));
#76 = LINE('',#77,#78);
#77 = CARTESIAN_POINT('',(103.74,-25.5,1.56));
#78 = VECTOR('',#79,1.);
#79 = DIRECTION('',(0.,-1.,0.));
#80 = ORIENTED_EDGE('',*,*,#81,.T.);
#81 = EDGE_CURVE('',#74,#82,#84,.T.);
#82 = VERTEX_POINT('',#83);
#83 = CARTESIAN_POINT('',(103.032893,-41.625,1.56));
#84 = LINE('',#85,#86);
#85 = CARTESIAN_POINT('',(103.74,-40.917893,1.56));
#86 = VECTOR('',#87,1.);
#87 = DIRECTION('',(-0.707106781187,-0.707106781187,0.));
#88 = ORIENTED_EDGE('',*,*,#89,.T.);
#89 = EDGE_CURVE('',#82,#90,#92,.T.);
#90 = VERTEX_POINT('',#91);
#91 = CARTESIAN_POINT('',(103.74,-42.332107,1.56));
#92 = LINE('',#93,#94);
#93 = CARTESIAN_POINT('',(103.032893,-41.625,1.56));
#94 = VECTOR('',#95,1.);
#95 = DIRECTION('',(0.707106781187,-0.707106781187,0.));
#96 = ORIENTED_EDGE('',*,*,#97,.T.);
#97 = EDGE_CURVE('',#90,#98,#100,.T.);
#98 = VERTEX_POINT('',#99);
#99 = CARTESIAN_POINT('',(103.74,-57.75,1.56));
#100 = LINE('',#101,#102);
#101 = CARTESIAN_POINT('',(103.74,-42.332107,1.56));
#102 = VECTOR('',#103,1.);
#103 = DIRECTION('',(0.,-1.,0.));
#104 = ORIENTED_EDGE('',*,*,#105,.T.);
#105 = EDGE_CURVE('',#98,#106,#108,.T.);
#106 = VERTEX_POINT('',#107);
#107 = CARTESIAN_POINT('',(103.24,-58.25,1.56));
#108 = LINE('',#109,#110);
#109 = CARTESIAN_POINT('',(103.74,-57.75,1.56));
#110 = VECTOR('',#111,1.);
#111 = DIRECTION('',(-0.707106781187,-0.707106781187,0.));
#112 = ORIENTED_EDGE('',*,*,#113,.T.);
#113 = EDGE_CURVE('',#106,#114,#116,.T.);
#114 = VERTEX_POINT('',#115);
#115 = CARTESIAN_POINT('',(25.5,-58.25,1.56));
#116 = LINE('',#117,#118);
#117 = CARTESIAN_POINT('',(103.24,-58.25,1.56));
#118 = VECTOR('',#119,1.);
#119 = DIRECTION('',(-1.,0.,0.));
#120 = ORIENTED_EDGE('',*,*,#121,.T.);
#121 = EDGE_CURVE('',#114,#122,#124,.T.);
#122 = VERTEX_POINT('',#123);
#123 = CARTESIAN_POINT('',(25.,-57.75,1.56));
#124 = LINE('',#125,#126);
#125 = CARTESIAN_POINT('',(25.5,-58.25,1.56));
#126 = VECTOR('',#127,1.);
#127 = DIRECTION('',(-0.707106781187,0.707106781187,0.));
#128 = ORIENTED_EDGE('',*,*,#129,.T.);
#129 = EDGE_CURVE('',#122,#130,#132,.T.);
#130 = VERTEX_POINT('',#131);
#131 = CARTESIAN_POINT('',(25.,-42.332107,1.56));
#132 = LINE('',#133,#134);
#133 = CARTESIAN_POINT('',(25.,-57.75,1.56));
#134 = VECTOR('',#135,1.);
#135 = DIRECTION('',(0.,1.,0.));
#136 = ORIENTED_EDGE('',*,*,#137,.T.);
#137 = EDGE_CURVE('',#130,#138,#140,.T.);
#138 = VERTEX_POINT('',#139);
#139 = CARTESIAN_POINT('',(25.707107,-41.625,1.56));
#140 = LINE('',#141,#142);
#141 = CARTESIAN_POINT('',(25.,-42.332107,1.56));
#142 = VECTOR('',#143,1.);
#143 = DIRECTION('',(0.707106781187,0.707106781187,0.));
#144 = ORIENTED_EDGE('',*,*,#145,.T.);
#145 = EDGE_CURVE('',#138,#146,#148,.T.);
#146 = VERTEX_POINT('',#147);
#147 = CARTESIAN_POINT('',(25.,-40.917893,1.56));
#148 = LINE('',#149,#150);
#149 = CARTESIAN_POINT('',(25.707107,-41.625,1.56));
#150 = VECTOR('',#151,1.);
#151 = DIRECTION('',(-0.707106781187,0.707106781187,0.));
#152 = ORIENTED_EDGE('',*,*,#153,.T.);
#153 = EDGE_CURVE('',#146,#48,#154,.T.);
#154 = LINE('',#155,#156);
#155 = CARTESIAN_POINT('',(25.,-40.917893,1.56));
#156 = VECTOR('',#157,1.);
#157 = DIRECTION('',(0.,1.,0.));
#158 = FACE_BOUND('',#159,.F.);
#159 = EDGE_LOOP('',(#160,#171,#179,#188,#196,#205,#213,#222));
#160 = ORIENTED_EDGE('',*,*,#161,.T.);
#161 = EDGE_CURVE('',#162,#164,#166,.T.);
#162 = VERTEX_POINT('',#163);
#163 = CARTESIAN_POINT('',(59.288333,-29.625,1.56));
#164 = VERTEX_POINT('',#165);
#165 = CARTESIAN_POINT('',(59.238333,-29.575,1.56));
#166 = CIRCLE('',#167,5.000014378936E-02);
#167 = AXIS2_PLACEMENT_3D('',#168,#169,#170);
#168 = CARTESIAN_POINT('',(59.238332856211,-29.62500014378,1.56));
#169 = DIRECTION('',(0.,0.,1.));
#170 = DIRECTION('',(0.999999999996,2.875774825985E-06,-0.));
#171 = ORIENTED_EDGE('',*,*,#172,.T.);
#172 = EDGE_CURVE('',#164,#173,#175,.T.);
#173 = VERTEX_POINT('',#174);
#174 = CARTESIAN_POINT('',(35.238333,-29.575,1.56));
#175 = LINE('',#176,#177);
#176 = CARTESIAN_POINT('',(59.238333,-29.575,1.56));
#177 = VECTOR('',#178,1.);
#178 = DIRECTION('',(-1.,0.,0.));
#179 = ORIENTED_EDGE('',*,*,#180,.T.);
#180 = EDGE_CURVE('',#173,#181,#183,.T.);
#181 = VERTEX_POINT('',#182);
#182 = CARTESIAN_POINT('',(35.188333,-29.625,1.56));
#183 = CIRCLE('',#184,5.000014378936E-02);
#184 = AXIS2_PLACEMENT_3D('',#185,#186,#187);
#185 = CARTESIAN_POINT('',(35.238333143789,-29.62500014378,1.56));
#186 = DIRECTION('',(0.,0.,1.));
#187 = DIRECTION('',(-2.875774754931E-06,0.999999999996,0.));
#188 = ORIENTED_EDGE('',*,*,#189,.T.);
#189 = EDGE_CURVE('',#181,#190,#192,.T.);
#190 = VERTEX_POINT('',#191);
#191 = CARTESIAN_POINT('',(35.188333,-53.625,1.56));
#192 = LINE('',#193,#194);
#193 = CARTESIAN_POINT('',(35.188333,-29.625,1.56));
#194 = VECTOR('',#195,1.);
#195 = DIRECTION('',(0.,-1.,0.));
#196 = ORIENTED_EDGE('',*,*,#197,.T.);
#197 = EDGE_CURVE('',#190,#198,#200,.T.);
#198 = VERTEX_POINT('',#199);
#199 = CARTESIAN_POINT('',(35.238333,-53.675,1.56));
#200 = CIRCLE('',#201,5.000014378933E-02);
#201 = AXIS2_PLACEMENT_3D('',#202,#203,#204);
#202 = CARTESIAN_POINT('',(35.238333143789,-53.62499985621,1.56));
#203 = DIRECTION('',(0.,0.,1.));
#204 = DIRECTION('',(-0.999999999996,-2.875774328608E-06,0.));
#205 = ORIENTED_EDGE('',*,*,#206,.T.);
#206 = EDGE_CURVE('',#198,#207,#209,.T.);
#207 = VERTEX_POINT('',#208);
#208 = CARTESIAN_POINT('',(59.238333,-53.675,1.56));
#209 = LINE('',#210,#211);
#210 = CARTESIAN_POINT('',(35.238333,-53.675,1.56));
#211 = VECTOR('',#212,1.);
#212 = DIRECTION('',(1.,0.,0.));
#213 = ORIENTED_EDGE('',*,*,#214,.T.);
#214 = EDGE_CURVE('',#207,#215,#217,.T.);
#215 = VERTEX_POINT('',#216);
#216 = CARTESIAN_POINT('',(59.288333,-53.625,1.56));
#217 = CIRCLE('',#218,5.000014378934E-02);
#218 = AXIS2_PLACEMENT_3D('',#219,#220,#221);
#219 = CARTESIAN_POINT('',(59.238332856211,-53.62499985621,1.56));
#220 = DIRECTION('',(0.,0.,1.));
#221 = DIRECTION('',(2.875774328607E-06,-0.999999999996,0.));
#222 = ORIENTED_EDGE('',*,*,#223,.T.);
#223 = EDGE_CURVE('',#215,#162,#224,.T.);
#224 = LINE('',#225,#226);
#225 = CARTESIAN_POINT('',(59.288333,-53.625,1.56));
#226 = VECTOR('',#227,1.);
#227 = DIRECTION('',(0.,1.,0.));
#228 = FACE_BOUND('',#229,.F.);
#229 = EDGE_LOOP('',(#230,#241,#249,#258,#266,#275,#283,#292));
#230 = ORIENTED_EDGE('',*,*,#231,.T.);
#231 = EDGE_CURVE('',#232,#234,#236,.T.);
#232 = VERTEX_POINT('',#233);
#233 = CARTESIAN_POINT('',(93.551667,-29.625,1.56));
#234 = VERTEX_POINT('',#235);
#235 = CARTESIAN_POINT('',(93.501667,-29.575,1.56));
#236 = CIRCLE('',#237,5.000014378934E-02);
#237 = AXIS2_PLACEMENT_3D('',#238,#239,#240);
#238 = CARTESIAN_POINT('',(93.501666856211,-29.62500014378,1.56));
#239 = DIRECTION('',(0.,0.,1.));
#240 = DIRECTION('',(0.999999999996,2.875774399662E-06,-0.));
#241 = ORIENTED_EDGE('',*,*,#242,.T.);
#242 = EDGE_CURVE('',#234,#243,#245,.T.);
#243 = VERTEX_POINT('',#244);
#244 = CARTESIAN_POINT('',(69.501667,-29.575,1.56));
#245 = LINE('',#246,#247);
#246 = CARTESIAN_POINT('',(93.501667,-29.575,1.56));
#247 = VECTOR('',#248,1.);
#248 = DIRECTION('',(-1.,0.,0.));
#249 = ORIENTED_EDGE('',*,*,#250,.T.);
#250 = EDGE_CURVE('',#243,#251,#253,.T.);
#251 = VERTEX_POINT('',#252);
#252 = CARTESIAN_POINT('',(69.451667,-29.625,1.56));
#253 = CIRCLE('',#254,5.000014378935E-02);
#254 = AXIS2_PLACEMENT_3D('',#255,#256,#257);
#255 = CARTESIAN_POINT('',(69.501667143789,-29.62500014378,1.56));
#256 = DIRECTION('',(0.,0.,1.));
#257 = DIRECTION('',(-2.875774754931E-06,0.999999999996,0.));
#258 = ORIENTED_EDGE('',*,*,#259,.T.);
#259 = EDGE_CURVE('',#251,#260,#262,.T.);
#260 = VERTEX_POINT('',#261);
#261 = CARTESIAN_POINT('',(69.451667,-53.625,1.56));
#262 = LINE('',#263,#264);
#263 = CARTESIAN_POINT('',(69.451667,-29.625,1.56));
#264 = VECTOR('',#265,1.);
#265 = DIRECTION('',(0.,-1.,0.));
#266 = ORIENTED_EDGE('',*,*,#267,.T.);
#267 = EDGE_CURVE('',#260,#268,#270,.T.);
#268 = VERTEX_POINT('',#269);
#269 = CARTESIAN_POINT('',(69.501667,-53.675,1.56));
#270 = CIRCLE('',#271,5.000014378933E-02);
#271 = AXIS2_PLACEMENT_3D('',#272,#273,#274);
#272 = CARTESIAN_POINT('',(69.501667143789,-53.62499985621,1.56));
#273 = DIRECTION('',(0.,0.,1.));
#274 = DIRECTION('',(-0.999999999996,-2.875774328608E-06,0.));
#275 = ORIENTED_EDGE('',*,*,#276,.T.);
#276 = EDGE_CURVE('',#268,#277,#279,.T.);
#277 = VERTEX_POINT('',#278);
#278 = CARTESIAN_POINT('',(93.501667,-53.675,1.56));
#279 = LINE('',#280,#281);
#280 = CARTESIAN_POINT('',(69.501667,-53.675,1.56));
#281 = VECTOR('',#282,1.);
#282 = DIRECTION('',(1.,0.,0.));
#283 = ORIENTED_EDGE('',*,*,#284,.T.);
#284 = EDGE_CURVE('',#277,#285,#287,.T.);
#285 = VERTEX_POINT('',#286);
#286 = CARTESIAN_POINT('',(93.551667,-53.625,1.56));
#287 = CIRCLE('',#288,5.000014378933E-02);
#288 = AXIS2_PLACEMENT_3D('',#289,#290,#291);
#289 = CARTESIAN_POINT('',(93.501666856211,-53.62499985621,1.56));
#290 = DIRECTION('',(0.,0.,1.));
#291 = DIRECTION('',(2.8757741865E-06,-0.999999999996,0.));
#292 = ORIENTED_EDGE('',*,*,#293,.T.);
#293 = EDGE_CURVE('',#285,#232,#294,.T.);
#294 = LINE('',#295,#296);
#295 = CARTESIAN_POINT('',(93.551667,-53.625,1.56));
#296 = VECTOR('',#297,1.);
#297 = DIRECTION('',(0.,1.,0.));
#298 = PLANE('',#299);
#299 = AXIS2_PLACEMENT_3D('',#300,#301,#302);
#300 = CARTESIAN_POINT('',(0.,0.,1.56));
#301 = DIRECTION('',(0.,0.,1.));
#302 = DIRECTION('',(1.,0.,-0.));
#303 = ( GEOMETRIC_REPRESENTATION_CONTEXT(3) 
GLOBAL_UNCERTAINTY_ASSIGNED_CONTEXT((#307)) GLOBAL_UNIT_ASSIGNED_CONTEXT
((#304,#305,#306)) REPRESENTATION_CONTEXT('Context #1',
  '3D Context with UNIT and UNCERTAINTY') );
#304 = ( LENGTH_UNIT() NAMED_UNIT(*) SI_UNIT(.MILLI.,.METRE.) );
#305 = ( NAMED_UNIT(*) PLANE_ANGLE_UNIT() SI_UNIT($,.RADIAN.) );
#306 = ( NAMED_UNIT(*) SI_UNIT($,.STERADIAN.) SOLID_ANGLE_UNIT() );
#307 = UNCERTAINTY_MEASURE_WITH_UNIT(LENGTH_MEASURE(1.E-07),#304,
  'distance_accuracy_value','confusion accuracy');
#308 = CONTEXT_DEPENDENT_SHAPE_REPRESENTATION(#309,#311);
#309 = ( REPRESENTATION_RELATIONSHIP('','',#40,#10) 
REPRESENTATION_RELATIONSHIP_WITH_TRANSFORMATION(#310) 
SHAPE_REPRESENTATION_RELATIONSHIP() );
#310 = ITEM_DEFINED_TRANSFORMATION('','',#11,#15);
#311 = PRODUCT_DEFINITION_SHAPE('Placement','Placement of an item',#312
  );
#312 = NEXT_ASSEMBLY_USAGE_OCCURRENCE('1','=>[0:1:1:2]','',#5,#35,$);
#313 = PRODUCT_RELATED_PRODUCT_CATEGORY('part',$,(#37));
#314 = SHAPE_DEFINITION_REPRESENTATION(#315,#321);
#315 = PRODUCT_DEFINITION_SHAPE('','',#316);
#316 = PRODUCT_DEFINITION('design','',#317,#320);
#317 = PRODUCT_DEFINITION_FORMATION('','',#318);
#318 = PRODUCT('J11_soldermask','J11_soldermask','',(#319));
#319 = PRODUCT_CONTEXT('',#2,'mechanical');
#320 = PRODUCT_DEFINITION_CONTEXT('part definition',#2,'design');
#321 = MANIFOLD_SURFACE_SHAPE_REPRESENTATION('',(#11,#322),#444);
#322 = SHELL_BASED_SURFACE_MODEL('',(#323));
#323 = OPEN_SHELL('',(#324));
#324 = ADVANCED_FACE('',(#325),#439,.T.);
#325 = FACE_BOUND('',#326,.T.);
#326 = EDGE_LOOP('',(#327,#337,#345,#353,#361,#369,#377,#385,#393,#401,
    #409,#417,#425,#433));
#327 = ORIENTED_EDGE('',*,*,#328,.T.);
#328 = EDGE_CURVE('',#329,#331,#333,.T.);
#329 = VERTEX_POINT('',#330);
#330 = CARTESIAN_POINT('',(25.,-25.5,-5.E-02));
#331 = VERTEX_POINT('',#332);
#332 = CARTESIAN_POINT('',(25.5,-25.,-5.E-02));
#333 = LINE('',#334,#335);
#334 = CARTESIAN_POINT('',(25.,-25.5,-5.E-02));
#335 = VECTOR('',#336,1.);
#336 = DIRECTION('',(0.707106781187,0.707106781187,0.));
#337 = ORIENTED_EDGE('',*,*,#338,.T.);
#338 = EDGE_CURVE('',#331,#339,#341,.T.);
#339 = VERTEX_POINT('',#340);
#340 = CARTESIAN_POINT('',(103.24,-25.,-5.E-02));
#341 = LINE('',#342,#343);
#342 = CARTESIAN_POINT('',(25.5,-25.,-5.E-02));
#343 = VECTOR('',#344,1.);
#344 = DIRECTION('',(1.,0.,0.));
#345 = ORIENTED_EDGE('',*,*,#346,.T.);
#346 = EDGE_CURVE('',#339,#347,#349,.T.);
#347 = VERTEX_POINT('',#348);
#348 = CARTESIAN_POINT('',(103.74,-25.5,-5.E-02));
#349 = LINE('',#350,#351);
#350 = CARTESIAN_POINT('',(103.24,-25.,-5.E-02));
#351 = VECTOR('',#352,1.);
#352 = DIRECTION('',(0.707106781187,-0.707106781187,0.));
#353 = ORIENTED_EDGE('',*,*,#354,.T.);
#354 = EDGE_CURVE('',#347,#355,#357,.T.);
#355 = VERTEX_POINT('',#356);
#356 = CARTESIAN_POINT('',(103.74,-40.917893,-5.E-02));
#357 = LINE('',#358,#359);
#358 = CARTESIAN_POINT('',(103.74,-25.5,-5.E-02));
#359 = VECTOR('',#360,1.);
#360 = DIRECTION('',(0.,-1.,0.));
#361 = ORIENTED_EDGE('',*,*,#362,.T.);
#362 = EDGE_CURVE('',#355,#363,#365,.T.);
#363 = VERTEX_POINT('',#364);
#364 = CARTESIAN_POINT('',(103.032893,-41.625,-5.E-02));
#365 = LINE('',#366,#367);
#366 = CARTESIAN_POINT('',(103.74,-40.917893,-5.E-02));
#367 = VECTOR('',#368,1.);
#368 = DIRECTION('',(-0.707106781187,-0.707106781187,0.));
#369 = ORIENTED_EDGE('',*,*,#370,.T.);
#370 = EDGE_CURVE('',#363,#371,#373,.T.);
#371 = VERTEX_POINT('',#372);
#372 = CARTESIAN_POINT('',(103.74,-42.332107,-5.E-02));
#373 = LINE('',#374,#375);
#374 = CARTESIAN_POINT('',(103.032893,-41.625,-5.E-02));
#375 = VECTOR('',#376,1.);
#376 = DIRECTION('',(0.707106781187,-0.707106781187,0.));
#377 = ORIENTED_EDGE('',*,*,#378,.T.);
#378 = EDGE_CURVE('',#371,#379,#381,.T.);
#379 = VERTEX_POINT('',#380);
#380 = CARTESIAN_POINT('',(103.74,-57.75,-5.E-02));
#381 = LINE('',#382,#383);
#382 = CARTESIAN_POINT('',(103.74,-42.332107,-5.E-02));
#383 = VECTOR('',#384,1.);
#384 = DIRECTION('',(0.,-1.,0.));
#385 = ORIENTED_EDGE('',*,*,#386,.T.);
#386 = EDGE_CURVE('',#379,#387,#389,.T.);
#387 = VERTEX_POINT('',#388);
#388 = CARTESIAN_POINT('',(103.24,-58.25,-5.E-02));
#389 = LINE('',#390,#391);
#390 = CARTESIAN_POINT('',(103.74,-57.75,-5.E-02));
#391 = VECTOR('',#392,1.);
#392 = DIRECTION('',(-0.707106781187,-0.707106781187,0.));
#393 = ORIENTED_EDGE('',*,*,#394,.T.);
#394 = EDGE_CURVE('',#387,#395,#397,.T.);
#395 = VERTEX_POINT('',#396);
#396 = CARTESIAN_POINT('',(25.5,-58.25,-5.E-02));
#397 = LINE('',#398,#399);
#398 = CARTESIAN_POINT('',(103.24,-58.25,-5.E-02));
#399 = VECTOR('',#400,1.);
#400 = DIRECTION('',(-1.,0.,0.));
#401 = ORIENTED_EDGE('',*,*,#402,.T.);
#402 = EDGE_CURVE('',#395,#403,#405,.T.);
#403 = VERTEX_POINT('',#404);
#404 = CARTESIAN_POINT('',(25.,-57.75,-5.E-02));
#405 = LINE('',#406,#407);
#406 = CARTESIAN_POINT('',(25.5,-58.25,-5.E-02));
#407 = VECTOR('',#408,1.);
#408 = DIRECTION('',(-0.707106781187,0.707106781187,0.));
#409 = ORIENTED_EDGE('',*,*,#410,.T.);
#410 = EDGE_CURVE('',#403,#411,#413,.T.);
#411 = VERTEX_POINT('',#412);
#412 = CARTESIAN_POINT('',(25.,-42.332107,-5.E-02));
#413 = LINE('',#414,#415);
#414 = CARTESIAN_POINT('',(25.,-57.75,-5.E-02));
#415 = VECTOR('',#416,1.);
#416 = DIRECTION('',(0.,1.,0.));
#417 = ORIENTED_EDGE('',*,*,#418,.T.);
#418 = EDGE_CURVE('',#411,#419,#421,.T.);
#419 = VERTEX_POINT('',#420);
#420 = CARTESIAN_POINT('',(25.707107,-41.625,-5.E-02));
#421 = LINE('',#422,#423);
#422 = CARTESIAN_POINT('',(25.,-42.332107,-5.E-02));
#423 = VECTOR('',#424,1.);
#424 = DIRECTION('',(0.707106781187,0.707106781187,0.));
#425 = ORIENTED_EDGE('',*,*,#426,.T.);
#426 = EDGE_CURVE('',#419,#427,#429,.T.);
#427 = VERTEX_POINT('',#428);
#428 = CARTESIAN_POINT('',(25.,-40.917893,-5.E-02));
#429 = LINE('',#430,#431);
#430 = CARTESIAN_POINT('',(25.707107,-41.625,-5.E-02));
#431 = VECTOR('',#432,1.);
#432 = DIRECTION('',(-0.707106781187,0.707106781187,0.));
#433 = ORIENTED_EDGE('',*,*,#434,.T.);
#434 = EDGE_CURVE('',#427,#329,#435,.T.);
#435 = LINE('',#436,#437);
#436 = CARTESIAN_POINT('',(25.,-40.917893,-5.E-02));
#437 = VECTOR('',#438,1.);
#438 = DIRECTION('',(0.,1.,0.));
#439 = PLANE('',#440);
#440 = AXIS2_PLACEMENT_3D('',#441,#442,#443);
#441 = CARTESIAN_POINT('',(0.,0.,-5.E-02));
#442 = DIRECTION('',(-0.,-0.,-1.));
#443 = DIRECTION('',(-1.,0.,0.));
#444 = ( GEOMETRIC_REPRESENTATION_CONTEXT(3) 
GLOBAL_UNCERTAINTY_ASSIGNED_CONTEXT((#448)) GLOBAL_UNIT_ASSIGNED_CONTEXT
((#445,#446,#447)) REPRESENTATION_CONTEXT('Context #1',
  '3D Context with UNIT and UNCERTAINTY') );
#445 = ( LENGTH_UNIT() NAMED_UNIT(*) SI_UNIT(.MILLI.,.METRE.) );
#446 = ( NAMED_UNIT(*) PLANE_ANGLE_UNIT() SI_UNIT($,.RADIAN.) );
#447 = ( NAMED_UNIT(*) SI_UNIT($,.STERADIAN.) SOLID_ANGLE_UNIT() );
#448 = UNCERTAINTY_MEASURE_WITH_UNIT(LENGTH_MEASURE(1.E-07),#445,
  'distance_accuracy_value','confusion accuracy');
#449 = CONTEXT_DEPENDENT_SHAPE_REPRESENTATION(#450,#452);
#450 = ( REPRESENTATION_RELATIONSHIP('','',#321,#10) 
REPRESENTATION_RELATIONSHIP_WITH_TRANSFORMATION(#451) 
SHAPE_REPRESENTATION_RELATIONSHIP() );
#451 = ITEM_DEFINED_TRANSFORMATION('','',#11,#19);
#452 = PRODUCT_DEFINITION_SHAPE('Placement','Placement of an item',#453
  );
#453 = NEXT_ASSEMBLY_USAGE_OCCURRENCE('2','=>[0:1:1:3]','',#5,#316,$);
#454 = PRODUCT_RELATED_PRODUCT_CATEGORY('part',$,(#318));
#455 = SHAPE_DEFINITION_REPRESENTATION(#456,#462);
#456 = PRODUCT_DEFINITION_SHAPE('','',#457);
#457 = PRODUCT_DEFINITION('design','',#458,#461);
#458 = PRODUCT_DEFINITION_FORMATION('','',#459);
#459 = PRODUCT('J11_PCB','J11_PCB','',(#460));
#460 = PRODUCT_CONTEXT('',#2,'mechanical');
#461 = PRODUCT_DEFINITION_CONTEXT('part definition',#2,'design');
#462 = ADVANCED_BREP_SHAPE_REPRESENTATION('',(#11,#463),#943);
#463 = MANIFOLD_SOLID_BREP('',#464);
#464 = CLOSED_SHELL('',(#465,#505,#536,#567,#598,#629,#660,#691,#722,
    #753,#784,#815,#846,#877,#899,#921));
#465 = ADVANCED_FACE('',(#466),#500,.T.);
#466 = FACE_BOUND('',#467,.T.);
#467 = EDGE_LOOP('',(#468,#478,#486,#494));
#468 = ORIENTED_EDGE('',*,*,#469,.T.);
#469 = EDGE_CURVE('',#470,#472,#474,.T.);
#470 = VERTEX_POINT('',#471);
#471 = CARTESIAN_POINT('',(103.74,-25.5,0.));
#472 = VERTEX_POINT('',#473);
#473 = CARTESIAN_POINT('',(103.74,-25.5,1.51));
#474 = LINE('',#475,#476);
#475 = CARTESIAN_POINT('',(103.74,-25.5,0.));
#476 = VECTOR('',#477,1.);
#477 = DIRECTION('',(0.,0.,1.));
#478 = ORIENTED_EDGE('',*,*,#479,.T.);
#479 = EDGE_CURVE('',#472,#480,#482,.T.);
#480 = VERTEX_POINT('',#481);
#481 = CARTESIAN_POINT('',(103.74,-40.917893,1.51));
#482 = LINE('',#483,#484);
#483 = CARTESIAN_POINT('',(103.74,-25.5,1.51));
#484 = VECTOR('',#485,1.);
#485 = DIRECTION('',(0.,-1.,0.));
#486 = ORIENTED_EDGE('',*,*,#487,.F.);
#487 = EDGE_CURVE('',#488,#480,#490,.T.);
#488 = VERTEX_POINT('',#489);
#489 = CARTESIAN_POINT('',(103.74,-40.917893,0.));
#490 = LINE('',#491,#492);
#491 = CARTESIAN_POINT('',(103.74,-40.917893,0.));
#492 = VECTOR('',#493,1.);
#493 = DIRECTION('',(0.,0.,1.));
#494 = ORIENTED_EDGE('',*,*,#495,.F.);
#495 = EDGE_CURVE('',#470,#488,#496,.T.);
#496 = LINE('',#497,#498);
#497 = CARTESIAN_POINT('',(103.74,-25.5,0.));
#498 = VECTOR('',#499,1.);
#499 = DIRECTION('',(0.,-1.,0.));
#500 = PLANE('',#501);
#501 = AXIS2_PLACEMENT_3D('',#502,#503,#504);
#502 = CARTESIAN_POINT('',(103.74,-25.5,0.));
#503 = DIRECTION('',(1.,0.,-0.));
#504 = DIRECTION('',(0.,-1.,0.));
#505 = ADVANCED_FACE('',(#506),#531,.T.);
#506 = FACE_BOUND('',#507,.T.);
#507 = EDGE_LOOP('',(#508,#509,#517,#525));
#508 = ORIENTED_EDGE('',*,*,#487,.T.);
#509 = ORIENTED_EDGE('',*,*,#510,.T.);
#510 = EDGE_CURVE('',#480,#511,#513,.T.);
#511 = VERTEX_POINT('',#512);
#512 = CARTESIAN_POINT('',(103.032893,-41.625,1.51));
#513 = LINE('',#514,#515);
#514 = CARTESIAN_POINT('',(103.74,-40.917893,1.51));
#515 = VECTOR('',#516,1.);
#516 = DIRECTION('',(-0.707106781187,-0.707106781187,0.));
#517 = ORIENTED_EDGE('',*,*,#518,.F.);
#518 = EDGE_CURVE('',#519,#511,#521,.T.);
#519 = VERTEX_POINT('',#520);
#520 = CARTESIAN_POINT('',(103.032893,-41.625,0.));
#521 = LINE('',#522,#523);
#522 = CARTESIAN_POINT('',(103.032893,-41.625,0.));
#523 = VECTOR('',#524,1.);
#524 = DIRECTION('',(0.,0.,1.));
#525 = ORIENTED_EDGE('',*,*,#526,.F.);
#526 = EDGE_CURVE('',#488,#519,#527,.T.);
#527 = LINE('',#528,#529);
#528 = CARTESIAN_POINT('',(103.74,-40.917893,0.));
#529 = VECTOR('',#530,1.);
#530 = DIRECTION('',(-0.707106781187,-0.707106781187,0.));
#531 = PLANE('',#532);
#532 = AXIS2_PLACEMENT_3D('',#533,#534,#535);
#533 = CARTESIAN_POINT('',(103.74,-40.917893,0.));
#534 = DIRECTION('',(0.707106781187,-0.707106781187,0.));
#535 = DIRECTION('',(-0.707106781187,-0.707106781187,0.));
#536 = ADVANCED_FACE('',(#537),#562,.T.);
#537 = FACE_BOUND('',#538,.T.);
#538 = EDGE_LOOP('',(#539,#540,#548,#556));
#539 = ORIENTED_EDGE('',*,*,#518,.T.);
#540 = ORIENTED_EDGE('',*,*,#541,.T.);
#541 = EDGE_CURVE('',#511,#542,#544,.T.);
#542 = VERTEX_POINT('',#543);
#543 = CARTESIAN_POINT('',(103.74,-42.332107,1.51));
#544 = LINE('',#545,#546);
#545 = CARTESIAN_POINT('',(103.032893,-41.625,1.51));
#546 = VECTOR('',#547,1.);
#547 = DIRECTION('',(0.707106781187,-0.707106781187,0.));
#548 = ORIENTED_EDGE('',*,*,#549,.F.);
#549 = EDGE_CURVE('',#550,#542,#552,.T.);
#550 = VERTEX_POINT('',#551);
#551 = CARTESIAN_POINT('',(103.74,-42.332107,0.));
#552 = LINE('',#553,#554);
#553 = CARTESIAN_POINT('',(103.74,-42.332107,0.));
#554 = VECTOR('',#555,1.);
#555 = DIRECTION('',(0.,0.,1.));
#556 = ORIENTED_EDGE('',*,*,#557,.F.);
#557 = EDGE_CURVE('',#519,#550,#558,.T.);
#558 = LINE('',#559,#560);
#559 = CARTESIAN_POINT('',(103.032893,-41.625,0.));
#560 = VECTOR('',#561,1.);
#561 = DIRECTION('',(0.707106781187,-0.707106781187,0.));
#562 = PLANE('',#563);
#563 = AXIS2_PLACEMENT_3D('',#564,#565,#566);
#564 = CARTESIAN_POINT('',(103.032893,-41.625,0.));
#565 = DIRECTION('',(0.707106781187,0.707106781187,-0.));
#566 = DIRECTION('',(0.707106781187,-0.707106781187,0.));
#567 = ADVANCED_FACE('',(#568),#593,.T.);
#568 = FACE_BOUND('',#569,.T.);
#569 = EDGE_LOOP('',(#570,#571,#579,#587));
#570 = ORIENTED_EDGE('',*,*,#549,.T.);
#571 = ORIENTED_EDGE('',*,*,#572,.T.);
#572 = EDGE_CURVE('',#542,#573,#575,.T.);
#573 = VERTEX_POINT('',#574);
#574 = CARTESIAN_POINT('',(103.74,-57.75,1.51));
#575 = LINE('',#576,#577);
#576 = CARTESIAN_POINT('',(103.74,-42.332107,1.51));
#577 = VECTOR('',#578,1.);
#578 = DIRECTION('',(0.,-1.,0.));
#579 = ORIENTED_EDGE('',*,*,#580,.F.);
#580 = EDGE_CURVE('',#581,#573,#583,.T.);
#581 = VERTEX_POINT('',#582);
#582 = CARTESIAN_POINT('',(103.74,-57.75,0.));
#583 = LINE('',#584,#585);
#584 = CARTESIAN_POINT('',(103.74,-57.75,0.));
#585 = VECTOR('',#586,1.);
#586 = DIRECTION('',(0.,0.,1.));
#587 = ORIENTED_EDGE('',*,*,#588,.F.);
#588 = EDGE_CURVE('',#550,#581,#589,.T.);
#589 = LINE('',#590,#591);
#590 = CARTESIAN_POINT('',(103.74,-42.332107,0.));
#591 = VECTOR('',#592,1.);
#592 = DIRECTION('',(0.,-1.,0.));
#593 = PLANE('',#594);
#594 = AXIS2_PLACEMENT_3D('',#595,#596,#597);
#595 = CARTESIAN_POINT('',(103.74,-42.332107,0.));
#596 = DIRECTION('',(1.,0.,-0.));
#597 = DIRECTION('',(0.,-1.,0.));
#598 = ADVANCED_FACE('',(#599),#624,.T.);
#599 = FACE_BOUND('',#600,.T.);
#600 = EDGE_LOOP('',(#601,#602,#610,#618));
#601 = ORIENTED_EDGE('',*,*,#580,.T.);
#602 = ORIENTED_EDGE('',*,*,#603,.T.);
#603 = EDGE_CURVE('',#573,#604,#606,.T.);
#604 = VERTEX_POINT('',#605);
#605 = CARTESIAN_POINT('',(103.24,-58.25,1.51));
#606 = LINE('',#607,#608);
#607 = CARTESIAN_POINT('',(103.74,-57.75,1.51));
#608 = VECTOR('',#609,1.);
#609 = DIRECTION('',(-0.707106781187,-0.707106781187,0.));
#610 = ORIENTED_EDGE('',*,*,#611,.F.);
#611 = EDGE_CURVE('',#612,#604,#614,.T.);
#612 = VERTEX_POINT('',#613);
#613 = CARTESIAN_POINT('',(103.24,-58.25,0.));
#614 = LINE('',#615,#616);
#615 = CARTESIAN_POINT('',(103.24,-58.25,0.));
#616 = VECTOR('',#617,1.);
#617 = DIRECTION('',(0.,0.,1.));
#618 = ORIENTED_EDGE('',*,*,#619,.F.);
#619 = EDGE_CURVE('',#581,#612,#620,.T.);
#620 = LINE('',#621,#622);
#621 = CARTESIAN_POINT('',(103.74,-57.75,0.));
#622 = VECTOR('',#623,1.);
#623 = DIRECTION('',(-0.707106781187,-0.707106781187,0.));
#624 = PLANE('',#625);
#625 = AXIS2_PLACEMENT_3D('',#626,#627,#628);
#626 = CARTESIAN_POINT('',(103.74,-57.75,0.));
#627 = DIRECTION('',(0.707106781187,-0.707106781187,0.));
#628 = DIRECTION('',(-0.707106781187,-0.707106781187,0.));
#629 = ADVANCED_FACE('',(#630),#655,.T.);
#630 = FACE_BOUND('',#631,.T.);
#631 = EDGE_LOOP('',(#632,#633,#641,#649));
#632 = ORIENTED_EDGE('',*,*,#611,.T.);
#633 = ORIENTED_EDGE('',*,*,#634,.T.);
#634 = EDGE_CURVE('',#604,#635,#637,.T.);
#635 = VERTEX_POINT('',#636);
#636 = CARTESIAN_POINT('',(25.5,-58.25,1.51));
#637 = LINE('',#638,#639);
#638 = CARTESIAN_POINT('',(103.24,-58.25,1.51));
#639 = VECTOR('',#640,1.);
#640 = DIRECTION('',(-1.,0.,0.));
#641 = ORIENTED_EDGE('',*,*,#642,.F.);
#642 = EDGE_CURVE('',#643,#635,#645,.T.);
#643 = VERTEX_POINT('',#644);
#644 = CARTESIAN_POINT('',(25.5,-58.25,0.));
#645 = LINE('',#646,#647);
#646 = CARTESIAN_POINT('',(25.5,-58.25,0.));
#647 = VECTOR('',#648,1.);
#648 = DIRECTION('',(0.,0.,1.));
#649 = ORIENTED_EDGE('',*,*,#650,.F.);
#650 = EDGE_CURVE('',#612,#643,#651,.T.);
#651 = LINE('',#652,#653);
#652 = CARTESIAN_POINT('',(103.24,-58.25,0.));
#653 = VECTOR('',#654,1.);
#654 = DIRECTION('',(-1.,0.,0.));
#655 = PLANE('',#656);
#656 = AXIS2_PLACEMENT_3D('',#657,#658,#659);
#657 = CARTESIAN_POINT('',(103.24,-58.25,0.));
#658 = DIRECTION('',(0.,-1.,0.));
#659 = DIRECTION('',(-1.,0.,0.));
#660 = ADVANCED_FACE('',(#661),#686,.T.);
#661 = FACE_BOUND('',#662,.T.);
#662 = EDGE_LOOP('',(#663,#664,#672,#680));
#663 = ORIENTED_EDGE('',*,*,#642,.T.);
#664 = ORIENTED_EDGE('',*,*,#665,.T.);
#665 = EDGE_CURVE('',#635,#666,#668,.T.);
#666 = VERTEX_POINT('',#667);
#667 = CARTESIAN_POINT('',(25.,-57.75,1.51));
#668 = LINE('',#669,#670);
#669 = CARTESIAN_POINT('',(25.5,-58.25,1.51));
#670 = VECTOR('',#671,1.);
#671 = DIRECTION('',(-0.707106781187,0.707106781187,0.));
#672 = ORIENTED_EDGE('',*,*,#673,.F.);
#673 = EDGE_CURVE('',#674,#666,#676,.T.);
#674 = VERTEX_POINT('',#675);
#675 = CARTESIAN_POINT('',(25.,-57.75,0.));
#676 = LINE('',#677,#678);
#677 = CARTESIAN_POINT('',(25.,-57.75,0.));
#678 = VECTOR('',#679,1.);
#679 = DIRECTION('',(0.,0.,1.));
#680 = ORIENTED_EDGE('',*,*,#681,.F.);
#681 = EDGE_CURVE('',#643,#674,#682,.T.);
#682 = LINE('',#683,#684);
#683 = CARTESIAN_POINT('',(25.5,-58.25,0.));
#684 = VECTOR('',#685,1.);
#685 = DIRECTION('',(-0.707106781187,0.707106781187,0.));
#686 = PLANE('',#687);
#687 = AXIS2_PLACEMENT_3D('',#688,#689,#690);
#688 = CARTESIAN_POINT('',(25.5,-58.25,0.));
#689 = DIRECTION('',(-0.707106781187,-0.707106781187,0.));
#690 = DIRECTION('',(-0.707106781187,0.707106781187,0.));
#691 = ADVANCED_FACE('',(#692),#717,.T.);
#692 = FACE_BOUND('',#693,.T.);
#693 = EDGE_LOOP('',(#694,#695,#703,#711));
#694 = ORIENTED_EDGE('',*,*,#673,.T.);
#695 = ORIENTED_EDGE('',*,*,#696,.T.);
#696 = EDGE_CURVE('',#666,#697,#699,.T.);
#697 = VERTEX_POINT('',#698);
#698 = CARTESIAN_POINT('',(25.,-42.332107,1.51));
#699 = LINE('',#700,#701);
#700 = CARTESIAN_POINT('',(25.,-57.75,1.51));
#701 = VECTOR('',#702,1.);
#702 = DIRECTION('',(0.,1.,0.));
#703 = ORIENTED_EDGE('',*,*,#704,.F.);
#704 = EDGE_CURVE('',#705,#697,#707,.T.);
#705 = VERTEX_POINT('',#706);
#706 = CARTESIAN_POINT('',(25.,-42.332107,0.));
#707 = LINE('',#708,#709);
#708 = CARTESIAN_POINT('',(25.,-42.332107,0.));
#709 = VECTOR('',#710,1.);
#710 = DIRECTION('',(0.,0.,1.));
#711 = ORIENTED_EDGE('',*,*,#712,.F.);
#712 = EDGE_CURVE('',#674,#705,#713,.T.);
#713 = LINE('',#714,#715);
#714 = CARTESIAN_POINT('',(25.,-57.75,0.));
#715 = VECTOR('',#716,1.);
#716 = DIRECTION('',(0.,1.,0.));
#717 = PLANE('',#718);
#718 = AXIS2_PLACEMENT_3D('',#719,#720,#721);
#719 = CARTESIAN_POINT('',(25.,-57.75,0.));
#720 = DIRECTION('',(-1.,0.,0.));
#721 = DIRECTION('',(0.,1.,0.));
#722 = ADVANCED_FACE('',(#723),#748,.T.);
#723 = FACE_BOUND('',#724,.T.);
#724 = EDGE_LOOP('',(#725,#726,#734,#742));
#725 = ORIENTED_EDGE('',*,*,#704,.T.);
#726 = ORIENTED_EDGE('',*,*,#727,.T.);
#727 = EDGE_CURVE('',#697,#728,#730,.T.);
#728 = VERTEX_POINT('',#729);
#729 = CARTESIAN_POINT('',(25.707107,-41.625,1.51));
#730 = LINE('',#731,#732);
#731 = CARTESIAN_POINT('',(25.,-42.332107,1.51));
#732 = VECTOR('',#733,1.);
#733 = DIRECTION('',(0.707106781187,0.707106781187,0.));
#734 = ORIENTED_EDGE('',*,*,#735,.F.);
#735 = EDGE_CURVE('',#736,#728,#738,.T.);
#736 = VERTEX_POINT('',#737);
#737 = CARTESIAN_POINT('',(25.707107,-41.625,0.));
#738 = LINE('',#739,#740);
#739 = CARTESIAN_POINT('',(25.707107,-41.625,0.));
#740 = VECTOR('',#741,1.);
#741 = DIRECTION('',(0.,0.,1.));
#742 = ORIENTED_EDGE('',*,*,#743,.F.);
#743 = EDGE_CURVE('',#705,#736,#744,.T.);
#744 = LINE('',#745,#746);
#745 = CARTESIAN_POINT('',(25.,-42.332107,0.));
#746 = VECTOR('',#747,1.);
#747 = DIRECTION('',(0.707106781187,0.707106781187,0.));
#748 = PLANE('',#749);
#749 = AXIS2_PLACEMENT_3D('',#750,#751,#752);
#750 = CARTESIAN_POINT('',(25.,-42.332107,0.));
#751 = DIRECTION('',(-0.707106781187,0.707106781187,0.));
#752 = DIRECTION('',(0.707106781187,0.707106781187,0.));
#753 = ADVANCED_FACE('',(#754),#779,.T.);
#754 = FACE_BOUND('',#755,.T.);
#755 = EDGE_LOOP('',(#756,#757,#765,#773));
#756 = ORIENTED_EDGE('',*,*,#735,.T.);
#757 = ORIENTED_EDGE('',*,*,#758,.T.);
#758 = EDGE_CURVE('',#728,#759,#761,.T.);
#759 = VERTEX_POINT('',#760);
#760 = CARTESIAN_POINT('',(25.,-40.917893,1.51));
#761 = LINE('',#762,#763);
#762 = CARTESIAN_POINT('',(25.707107,-41.625,1.51));
#763 = VECTOR('',#764,1.);
#764 = DIRECTION('',(-0.707106781187,0.707106781187,0.));
#765 = ORIENTED_EDGE('',*,*,#766,.F.);
#766 = EDGE_CURVE('',#767,#759,#769,.T.);
#767 = VERTEX_POINT('',#768);
#768 = CARTESIAN_POINT('',(25.,-40.917893,0.));
#769 = LINE('',#770,#771);
#770 = CARTESIAN_POINT('',(25.,-40.917893,0.));
#771 = VECTOR('',#772,1.);
#772 = DIRECTION('',(0.,0.,1.));
#773 = ORIENTED_EDGE('',*,*,#774,.F.);
#774 = EDGE_CURVE('',#736,#767,#775,.T.);
#775 = LINE('',#776,#777);
#776 = CARTESIAN_POINT('',(25.707107,-41.625,0.));
#777 = VECTOR('',#778,1.);
#778 = DIRECTION('',(-0.707106781187,0.707106781187,0.));
#779 = PLANE('',#780);
#780 = AXIS2_PLACEMENT_3D('',#781,#782,#783);
#781 = CARTESIAN_POINT('',(25.707107,-41.625,0.));
#782 = DIRECTION('',(-0.707106781187,-0.707106781187,0.));
#783 = DIRECTION('',(-0.707106781187,0.707106781187,0.));
#784 = ADVANCED_FACE('',(#785),#810,.T.);
#785 = FACE_BOUND('',#786,.T.);
#786 = EDGE_LOOP('',(#787,#788,#796,#804));
#787 = ORIENTED_EDGE('',*,*,#766,.T.);
#788 = ORIENTED_EDGE('',*,*,#789,.T.);
#789 = EDGE_CURVE('',#759,#790,#792,.T.);
#790 = VERTEX_POINT('',#791);
#791 = CARTESIAN_POINT('',(25.,-25.5,1.51));
#792 = LINE('',#793,#794);
#793 = CARTESIAN_POINT('',(25.,-40.917893,1.51));
#794 = VECTOR('',#795,1.);
#795 = DIRECTION('',(0.,1.,0.));
#796 = ORIENTED_EDGE('',*,*,#797,.F.);
#797 = EDGE_CURVE('',#798,#790,#800,.T.);
#798 = VERTEX_POINT('',#799);
#799 = CARTESIAN_POINT('',(25.,-25.5,0.));
#800 = LINE('',#801,#802);
#801 = CARTESIAN_POINT('',(25.,-25.5,0.));
#802 = VECTOR('',#803,1.);
#803 = DIRECTION('',(0.,0.,1.));
#804 = ORIENTED_EDGE('',*,*,#805,.F.);
#805 = EDGE_CURVE('',#767,#798,#806,.T.);
#806 = LINE('',#807,#808);
#807 = CARTESIAN_POINT('',(25.,-40.917893,0.));
#808 = VECTOR('',#809,1.);
#809 = DIRECTION('',(0.,1.,0.));
#810 = PLANE('',#811);
#811 = AXIS2_PLACEMENT_3D('',#812,#813,#814);
#812 = CARTESIAN_POINT('',(25.,-40.917893,0.));
#813 = DIRECTION('',(-1.,0.,0.));
#814 = DIRECTION('',(0.,1.,0.));
#815 = ADVANCED_FACE('',(#816),#841,.T.);
#816 = FACE_BOUND('',#817,.T.);
#817 = EDGE_LOOP('',(#818,#819,#827,#835));
#818 = ORIENTED_EDGE('',*,*,#797,.T.);
#819 = ORIENTED_EDGE('',*,*,#820,.T.);
#820 = EDGE_CURVE('',#790,#821,#823,.T.);
#821 = VERTEX_POINT('',#822);
#822 = CARTESIAN_POINT('',(25.5,-25.,1.51));
#823 = LINE('',#824,#825);
#824 = CARTESIAN_POINT('',(25.,-25.5,1.51));
#825 = VECTOR('',#826,1.);
#826 = DIRECTION('',(0.707106781187,0.707106781187,0.));
#827 = ORIENTED_EDGE('',*,*,#828,.F.);
#828 = EDGE_CURVE('',#829,#821,#831,.T.);
#829 = VERTEX_POINT('',#830);
#830 = CARTESIAN_POINT('',(25.5,-25.,0.));
#831 = LINE('',#832,#833);
#832 = CARTESIAN_POINT('',(25.5,-25.,0.));
#833 = VECTOR('',#834,1.);
#834 = DIRECTION('',(0.,0.,1.));
#835 = ORIENTED_EDGE('',*,*,#836,.F.);
#836 = EDGE_CURVE('',#798,#829,#837,.T.);
#837 = LINE('',#838,#839);
#838 = CARTESIAN_POINT('',(25.,-25.5,0.));
#839 = VECTOR('',#840,1.);
#840 = DIRECTION('',(0.707106781187,0.707106781187,0.));
#841 = PLANE('',#842);
#842 = AXIS2_PLACEMENT_3D('',#843,#844,#845);
#843 = CARTESIAN_POINT('',(25.,-25.5,0.));
#844 = DIRECTION('',(-0.707106781187,0.707106781187,0.));
#845 = DIRECTION('',(0.707106781187,0.707106781187,0.));
#846 = ADVANCED_FACE('',(#847),#872,.T.);
#847 = FACE_BOUND('',#848,.T.);
#848 = EDGE_LOOP('',(#849,#850,#858,#866));
#849 = ORIENTED_EDGE('',*,*,#828,.T.);
#850 = ORIENTED_EDGE('',*,*,#851,.T.);
#851 = EDGE_CURVE('',#821,#852,#854,.T.);
#852 = VERTEX_POINT('',#853);
#853 = CARTESIAN_POINT('',(103.24,-25.,1.51));
#854 = LINE('',#855,#856);
#855 = CARTESIAN_POINT('',(25.5,-25.,1.51));
#856 = VECTOR('',#857,1.);
#857 = DIRECTION('',(1.,0.,0.));
#858 = ORIENTED_EDGE('',*,*,#859,.F.);
#859 = EDGE_CURVE('',#860,#852,#862,.T.);
#860 = VERTEX_POINT('',#861);
#861 = CARTESIAN_POINT('',(103.24,-25.,0.));
#862 = LINE('',#863,#864);
#863 = CARTESIAN_POINT('',(103.24,-25.,0.));
#864 = VECTOR('',#865,1.);
#865 = DIRECTION('',(0.,0.,1.));
#866 = ORIENTED_EDGE('',*,*,#867,.F.);
#867 = EDGE_CURVE('',#829,#860,#868,.T.);
#868 = LINE('',#869,#870);
#869 = CARTESIAN_POINT('',(25.5,-25.,0.));
#870 = VECTOR('',#871,1.);
#871 = DIRECTION('',(1.,0.,0.));
#872 = PLANE('',#873);
#873 = AXIS2_PLACEMENT_3D('',#874,#875,#876);
#874 = CARTESIAN_POINT('',(25.5,-25.,0.));
#875 = DIRECTION('',(0.,1.,0.));
#876 = DIRECTION('',(1.,0.,0.));
#877 = ADVANCED_FACE('',(#878),#894,.T.);
#878 = FACE_BOUND('',#879,.T.);
#879 = EDGE_LOOP('',(#880,#881,#887,#888));
#880 = ORIENTED_EDGE('',*,*,#859,.T.);
#881 = ORIENTED_EDGE('',*,*,#882,.T.);
#882 = EDGE_CURVE('',#852,#472,#883,.T.);
#883 = LINE('',#884,#885);
#884 = CARTESIAN_POINT('',(103.24,-25.,1.51));
#885 = VECTOR('',#886,1.);
#886 = DIRECTION('',(0.707106781187,-0.707106781187,0.));
#887 = ORIENTED_EDGE('',*,*,#469,.F.);
#888 = ORIENTED_EDGE('',*,*,#889,.F.);
#889 = EDGE_CURVE('',#860,#470,#890,.T.);
#890 = LINE('',#891,#892);
#891 = CARTESIAN_POINT('',(103.24,-25.,0.));
#892 = VECTOR('',#893,1.);
#893 = DIRECTION('',(0.707106781187,-0.707106781187,0.));
#894 = PLANE('',#895);
#895 = AXIS2_PLACEMENT_3D('',#896,#897,#898);
#896 = CARTESIAN_POINT('',(103.24,-25.,0.));
#897 = DIRECTION('',(0.707106781187,0.707106781187,-0.));
#898 = DIRECTION('',(0.707106781187,-0.707106781187,0.));
#899 = ADVANCED_FACE('',(#900),#916,.F.);
#900 = FACE_BOUND('',#901,.T.);
#901 = EDGE_LOOP('',(#902,#903,#904,#905,#906,#907,#908,#909,#910,#911,
    #912,#913,#914,#915));
#902 = ORIENTED_EDGE('',*,*,#495,.T.);
#903 = ORIENTED_EDGE('',*,*,#526,.T.);
#904 = ORIENTED_EDGE('',*,*,#557,.T.);
#905 = ORIENTED_EDGE('',*,*,#588,.T.);
#906 = ORIENTED_EDGE('',*,*,#619,.T.);
#907 = ORIENTED_EDGE('',*,*,#650,.T.);
#908 = ORIENTED_EDGE('',*,*,#681,.T.);
#909 = ORIENTED_EDGE('',*,*,#712,.T.);
#910 = ORIENTED_EDGE('',*,*,#743,.T.);
#911 = ORIENTED_EDGE('',*,*,#774,.T.);
#912 = ORIENTED_EDGE('',*,*,#805,.T.);
#913 = ORIENTED_EDGE('',*,*,#836,.T.);
#914 = ORIENTED_EDGE('',*,*,#867,.T.);
#915 = ORIENTED_EDGE('',*,*,#889,.T.);
#916 = PLANE('',#917);
#917 = AXIS2_PLACEMENT_3D('',#918,#919,#920);
#918 = CARTESIAN_POINT('',(0.,0.,0.));
#919 = DIRECTION('',(0.,0.,1.));
#920 = DIRECTION('',(1.,0.,-0.));
#921 = ADVANCED_FACE('',(#922),#938,.T.);
#922 = FACE_BOUND('',#923,.F.);
#923 = EDGE_LOOP('',(#924,#925,#926,#927,#928,#929,#930,#931,#932,#933,
    #934,#935,#936,#937));
#924 = ORIENTED_EDGE('',*,*,#479,.T.);
#925 = ORIENTED_EDGE('',*,*,#510,.T.);
#926 = ORIENTED_EDGE('',*,*,#541,.T.);
#927 = ORIENTED_EDGE('',*,*,#572,.T.);
#928 = ORIENTED_EDGE('',*,*,#603,.T.);
#929 = ORIENTED_EDGE('',*,*,#634,.T.);
#930 = ORIENTED_EDGE('',*,*,#665,.T.);
#931 = ORIENTED_EDGE('',*,*,#696,.T.);
#932 = ORIENTED_EDGE('',*,*,#727,.T.);
#933 = ORIENTED_EDGE('',*,*,#758,.T.);
#934 = ORIENTED_EDGE('',*,*,#789,.T.);
#935 = ORIENTED_EDGE('',*,*,#820,.T.);
#936 = ORIENTED_EDGE('',*,*,#851,.T.);
#937 = ORIENTED_EDGE('',*,*,#882,.T.);
#938 = PLANE('',#939);
#939 = AXIS2_PLACEMENT_3D('',#940,#941,#942);
#940 = CARTESIAN_POINT('',(0.,0.,1.51));
#941 = DIRECTION('',(0.,0.,1.));
#942 = DIRECTION('',(1.,0.,-0.));
#943 = ( GEOMETRIC_REPRESENTATION_CONTEXT(3) 
GLOBAL_UNCERTAINTY_ASSIGNED_CONTEXT((#947)) GLOBAL_UNIT_ASSIGNED_CONTEXT
((#944,#945,#946)) REPRESENTATION_CONTEXT('Context #1',
  '3D Context with UNIT and UNCERTAINTY') );
#944 = ( LENGTH_UNIT() NAMED_UNIT(*) SI_UNIT(.MILLI.,.METRE.) );
#945 = ( NAMED_UNIT(*) PLANE_ANGLE_UNIT() SI_UNIT($,.RADIAN.) );
#946 = ( NAMED_UNIT(*) SI_UNIT($,.STERADIAN.) SOLID_ANGLE_UNIT() );
#947 = UNCERTAINTY_MEASURE_WITH_UNIT(LENGTH_MEASURE(1.E-07),#944,
  'distance_accuracy_value','confusion accuracy');
#948 = CONTEXT_DEPENDENT_SHAPE_REPRESENTATION(#949,#951);
#949 = ( REPRESENTATION_RELATIONSHIP('','',#462,#10) 
REPRESENTATION_RELATIONSHIP_WITH_TRANSFORMATION(#950) 
SHAPE_REPRESENTATION_RELATIONSHIP() );
#950 = ITEM_DEFINED_TRANSFORMATION('','',#11,#23);
#951 = PRODUCT_DEFINITION_SHAPE('Placement','Placement of an item',#952
  );
#952 = NEXT_ASSEMBLY_USAGE_OCCURRENCE('3','=>[0:1:1:4]','',#5,#457,$);
#953 = PRODUCT_RELATED_PRODUCT_CATEGORY('part',$,(#459));
#954 = MECHANICAL_DESIGN_GEOMETRIC_PRESENTATION_REPRESENTATION('',(#955)
  ,#444);
#955 = STYLED_ITEM('color',(#956),#324);
#956 = PRESENTATION_STYLE_ASSIGNMENT((#957));
#957 = SURFACE_STYLE_USAGE(.BOTH.,#958);
#958 = SURFACE_SIDE_STYLE('',(#959,#963));
#959 = SURFACE_STYLE_FILL_AREA(#960);
#960 = FILL_AREA_STYLE('',(#961));
#961 = FILL_AREA_STYLE_COLOUR('',#962);
#962 = COLOUR_RGB('',0.890440242649,0.890440242649,0.890440242649);
#963 = SURFACE_STYLE_RENDERING_WITH_PROPERTIES(.NORMAL_SHADING.,#962,(
    #964));
#964 = SURFACE_STYLE_TRANSPARENT(0.170000016689);
#965 = MECHANICAL_DESIGN_GEOMETRIC_PRESENTATION_REPRESENTATION('',(#966)
  ,#943);
#966 = STYLED_ITEM('color',(#967),#463);
#967 = PRESENTATION_STYLE_ASSIGNMENT((#968));
#968 = SURFACE_STYLE_USAGE(.BOTH.,#969);
#969 = SURFACE_SIDE_STYLE('',(#970));
#970 = SURFACE_STYLE_FILL_AREA(#971);
#971 = FILL_AREA_STYLE('',(#972));
#972 = FILL_AREA_STYLE_COLOUR('',#973);
#973 = COLOUR_RGB('',0.994810575075,0.994810575075,0.991330909532);
#974 = MECHANICAL_DESIGN_GEOMETRIC_PRESENTATION_REPRESENTATION('',(#975)
  ,#303);
#975 = STYLED_ITEM('color',(#976),#43);
#976 = PRESENTATION_STYLE_ASSIGNMENT((#977));
#977 = SURFACE_STYLE_USAGE(.BOTH.,#978);
#978 = SURFACE_SIDE_STYLE('',(#979,#982));
#979 = SURFACE_STYLE_FILL_AREA(#980);
#980 = FILL_AREA_STYLE('',(#981));
#981 = FILL_AREA_STYLE_COLOUR('',#962);
#982 = SURFACE_STYLE_RENDERING_WITH_PROPERTIES(.NORMAL_SHADING.,#962,(
    #983));
#983 = SURFACE_STYLE_TRANSPARENT(0.170000016689);
ENDSEC;
END-ISO-10303-21;
