%TF.GenerationSoftware,KiCad,Pcbnew,10.0.3*%
%TF.CreationDate,2026-06-21T22:43:21-04:00*%
%TF.ProjectId,J11Hack,4a313148-6163-46b2-9e6b-696361645f70,rev?*%
%TF.SameCoordinates,Original*%
%TF.FileFunction,Soldermask,Bot*%
%TF.FilePolarity,Negative*%
%FSLAX46Y46*%
G04 Gerber Fmt 4.6, Leading zero omitted, Abs format (unit mm)*
G04 Created by KiCad (PCBNEW 10.0.3) date 2026-06-21 22:43:21*
%MOMM*%
%LPD*%
G01*
G04 APERTURE LIST*
G04 Aperture macros list*
%AMRoundRect*
0 Rectangle with rounded corners*
0 $1 Rounding radius*
0 $2 $3 $4 $5 $6 $7 $8 $9 X,Y pos of 4 corners*
0 Add a 4 corners polygon primitive as box body*
4,1,4,$2,$3,$4,$5,$6,$7,$8,$9,$2,$3,0*
0 Add four circle primitives for the rounded corners*
1,1,$1+$1,$2,$3*
1,1,$1+$1,$4,$5*
1,1,$1+$1,$6,$7*
1,1,$1+$1,$8,$9*
0 Add four rect primitives between the rounded corners*
20,1,$1+$1,$2,$3,$4,$5,0*
20,1,$1+$1,$4,$5,$6,$7,0*
20,1,$1+$1,$6,$7,$8,$9,0*
20,1,$1+$1,$8,$9,$2,$3,0*%
%AMFreePoly0*
4,1,23,0.550000,-0.750000,0.000000,-0.750000,0.000000,-0.745722,-0.065263,-0.745722,-0.191342,-0.711940,-0.304381,-0.646677,-0.396677,-0.554381,-0.461940,-0.441342,-0.495722,-0.315263,-0.495722,-0.250000,-0.500000,-0.250000,-0.500000,0.250000,-0.495722,0.250000,-0.495722,0.315263,-0.461940,0.441342,-0.396677,0.554381,-0.304381,0.646677,-0.191342,0.711940,-0.065263,0.745722,0.000000,0.745722,
0.000000,0.750000,0.550000,0.750000,0.550000,-0.750000,0.550000,-0.750000,$1*%
%AMFreePoly1*
4,1,23,0.000000,0.745722,0.065263,0.745722,0.191342,0.711940,0.304381,0.646677,0.396677,0.554381,0.461940,0.441342,0.495722,0.315263,0.495722,0.250000,0.500000,0.250000,0.500000,-0.250000,0.495722,-0.250000,0.495722,-0.315263,0.461940,-0.441342,0.396677,-0.554381,0.304381,-0.646677,0.191342,-0.711940,0.065263,-0.745722,0.000000,-0.745722,0.000000,-0.750000,-0.550000,-0.750000,
-0.550000,0.750000,0.000000,0.750000,0.000000,0.745722,0.000000,0.745722,$1*%
G04 Aperture macros list end*
%ADD10R,3.500000X3.500000*%
%ADD11RoundRect,0.750000X0.750000X1.000000X-0.750000X1.000000X-0.750000X-1.000000X0.750000X-1.000000X0*%
%ADD12RoundRect,0.875000X0.875000X0.875000X-0.875000X0.875000X-0.875000X-0.875000X0.875000X-0.875000X0*%
%ADD13RoundRect,0.250000X0.550000X-0.550000X0.550000X0.550000X-0.550000X0.550000X-0.550000X-0.550000X0*%
%ADD14C,1.600000*%
%ADD15RoundRect,0.250000X-0.550000X0.550000X-0.550000X-0.550000X0.550000X-0.550000X0.550000X0.550000X0*%
%ADD16R,1.600000X1.600000*%
%ADD17RoundRect,0.250000X-0.550000X-0.550000X0.550000X-0.550000X0.550000X0.550000X-0.550000X0.550000X0*%
%ADD18R,1.700000X1.700000*%
%ADD19C,1.700000*%
%ADD20RoundRect,0.250000X0.550000X0.550000X-0.550000X0.550000X-0.550000X-0.550000X0.550000X-0.550000X0*%
%ADD21C,4.200000*%
%ADD22C,2.100000*%
%ADD23C,1.750000*%
%ADD24R,1.800000X1.800000*%
%ADD25C,1.800000*%
%ADD26C,1.839000*%
%ADD27RoundRect,0.102000X0.817500X-0.817500X0.817500X0.817500X-0.817500X0.817500X-0.817500X-0.817500X0*%
%ADD28C,1.500000*%
%ADD29FreePoly0,270.000000*%
%ADD30R,1.500000X1.000000*%
%ADD31FreePoly1,270.000000*%
G04 APERTURE END LIST*
%TO.C,JP3*%
G36*
X218096400Y-81238333D02*
G01*
X219596400Y-81238333D01*
X219596400Y-82738333D01*
X218096400Y-82738333D01*
X218096400Y-81238333D01*
G37*
%TO.C,JP1*%
G36*
X218172600Y-56971667D02*
G01*
X219672600Y-56971667D01*
X219672600Y-58471667D01*
X218172600Y-58471667D01*
X218172600Y-56971667D01*
G37*
%TO.C,JP2*%
G36*
X218172600Y-62188333D02*
G01*
X219672600Y-62188333D01*
X219672600Y-63688333D01*
X218172600Y-63688333D01*
X218172600Y-62188333D01*
G37*
%TO.C,JP4*%
G36*
X218172600Y-76021667D02*
G01*
X219672600Y-76021667D01*
X219672600Y-77521667D01*
X218172600Y-77521667D01*
X218172600Y-76021667D01*
G37*
%TD*%
D10*
%TO.C,J3*%
X214700600Y-34950400D03*
D11*
X220700600Y-34950400D03*
D12*
X217700600Y-30250400D03*
%TD*%
D13*
%TO.C,U9*%
X155741324Y-62870000D03*
D14*
X158281324Y-62870000D03*
X160821324Y-62870000D03*
X163361324Y-62870000D03*
X165901324Y-62870000D03*
X168441324Y-62870000D03*
X170981324Y-62870000D03*
X173521324Y-62870000D03*
X176061324Y-62870000D03*
X178601324Y-62870000D03*
X181141324Y-62870000D03*
X183681324Y-62870000D03*
X186221324Y-62870000D03*
X188761324Y-62870000D03*
X191301324Y-62870000D03*
X193841324Y-62870000D03*
X196381324Y-62870000D03*
X198921324Y-62870000D03*
X201461324Y-62870000D03*
X204001324Y-62870000D03*
X204001324Y-47630000D03*
X201461324Y-47630000D03*
X198921324Y-47630000D03*
X196381324Y-47630000D03*
X193841324Y-47630000D03*
X191301324Y-47630000D03*
X188761324Y-47630000D03*
X186221324Y-47630000D03*
X183681324Y-47630000D03*
X181141324Y-47630000D03*
X178601324Y-47630000D03*
X176061324Y-47630000D03*
X173521324Y-47630000D03*
X170981324Y-47630000D03*
X168441324Y-47630000D03*
X165901324Y-47630000D03*
X163361324Y-47630000D03*
X160821324Y-47630000D03*
X158281324Y-47630000D03*
X155741324Y-47630000D03*
%TD*%
D15*
%TO.C,C13*%
X204001324Y-42237388D03*
D14*
X204001324Y-44237388D03*
%TD*%
D15*
%TO.C,SW4*%
X202431324Y-31335000D03*
D14*
X199891324Y-31335000D03*
X197351324Y-31335000D03*
X194811324Y-31335000D03*
X192271324Y-31335000D03*
X189731324Y-31335000D03*
X187191324Y-31335000D03*
X184651324Y-31335000D03*
X184651324Y-38955000D03*
X187191324Y-38955000D03*
X189731324Y-38955000D03*
X192271324Y-38955000D03*
X194811324Y-38955000D03*
X197351324Y-38955000D03*
X199891324Y-38955000D03*
X202431324Y-38955000D03*
%TD*%
D16*
%TO.C,Y2*%
X168441324Y-117540000D03*
D14*
X168441324Y-102300000D03*
X160821324Y-102300000D03*
X160821324Y-117540000D03*
%TD*%
D17*
%TO.C,U16*%
X69381324Y-45090000D03*
D14*
X69381324Y-47630000D03*
X69381324Y-50170000D03*
X69381324Y-52710000D03*
X69381324Y-55250000D03*
X69381324Y-57790000D03*
X69381324Y-60330000D03*
X69381324Y-62870000D03*
X69381324Y-65410000D03*
X69381324Y-67950000D03*
X69381324Y-70490000D03*
X69381324Y-73030000D03*
X69381324Y-75570000D03*
X69381324Y-78110000D03*
X84621324Y-78110000D03*
X84621324Y-75570000D03*
X84621324Y-73030000D03*
X84621324Y-70490000D03*
X84621324Y-67950000D03*
X84621324Y-65410000D03*
X84621324Y-62870000D03*
X84621324Y-60330000D03*
X84621324Y-57790000D03*
X84621324Y-55250000D03*
X84621324Y-52710000D03*
X84621324Y-50170000D03*
X84621324Y-47630000D03*
X84621324Y-45090000D03*
%TD*%
%TO.C,R15*%
X141771324Y-95890000D03*
X134151324Y-95890000D03*
%TD*%
%TO.C,C25*%
X103671324Y-81920000D03*
X98671324Y-81920000D03*
%TD*%
D17*
%TO.C,U3*%
X107481324Y-65610000D03*
D14*
X107481324Y-68150000D03*
X107481324Y-70690000D03*
X107481324Y-73230000D03*
X107481324Y-75770000D03*
X107481324Y-78310000D03*
X107481324Y-80850000D03*
X107481324Y-83390000D03*
X107481324Y-85930000D03*
X107481324Y-88470000D03*
X115101324Y-88470000D03*
X115101324Y-85930000D03*
X115101324Y-83390000D03*
X115101324Y-80850000D03*
X115101324Y-78310000D03*
X115101324Y-75770000D03*
X115101324Y-73230000D03*
X115101324Y-70690000D03*
X115101324Y-68150000D03*
X115101324Y-65610000D03*
%TD*%
D18*
%TO.C,J1*%
X214450000Y-66680000D03*
D19*
X214450000Y-64140000D03*
X214450000Y-61600000D03*
X214450000Y-59060000D03*
X214450000Y-56520000D03*
X214450000Y-53980000D03*
%TD*%
D14*
%TO.C,C3*%
X148121324Y-80650000D03*
X143121324Y-80650000D03*
%TD*%
D13*
%TO.C,U10*%
X155741324Y-85730000D03*
D14*
X158281324Y-85730000D03*
X160821324Y-85730000D03*
X163361324Y-85730000D03*
X165901324Y-85730000D03*
X168441324Y-85730000D03*
X170981324Y-85730000D03*
X173521324Y-85730000D03*
X176061324Y-85730000D03*
X178601324Y-85730000D03*
X181141324Y-85730000D03*
X183681324Y-85730000D03*
X186221324Y-85730000D03*
X188761324Y-85730000D03*
X191301324Y-85730000D03*
X193841324Y-85730000D03*
X196381324Y-85730000D03*
X198921324Y-85730000D03*
X201461324Y-85730000D03*
X204001324Y-85730000D03*
X204001324Y-70490000D03*
X201461324Y-70490000D03*
X198921324Y-70490000D03*
X196381324Y-70490000D03*
X193841324Y-70490000D03*
X191301324Y-70490000D03*
X188761324Y-70490000D03*
X186221324Y-70490000D03*
X183681324Y-70490000D03*
X181141324Y-70490000D03*
X178601324Y-70490000D03*
X176061324Y-70490000D03*
X173521324Y-70490000D03*
X170981324Y-70490000D03*
X168441324Y-70490000D03*
X165901324Y-70490000D03*
X163361324Y-70490000D03*
X160821324Y-70490000D03*
X158281324Y-70490000D03*
X155741324Y-70490000D03*
%TD*%
D15*
%TO.C,SW5*%
X97391324Y-31335000D03*
D14*
X94851324Y-31335000D03*
X92311324Y-31335000D03*
X89771324Y-31335000D03*
X87231324Y-31335000D03*
X87231324Y-38955000D03*
X89771324Y-38955000D03*
X92311324Y-38955000D03*
X94851324Y-38955000D03*
X97391324Y-38955000D03*
%TD*%
D20*
%TO.C,C14*%
X210892925Y-70490000D03*
D14*
X208892925Y-70490000D03*
%TD*%
%TO.C,C7*%
X115101324Y-31120000D03*
X110101324Y-31120000D03*
%TD*%
D21*
%TO.C,H4*%
X222400000Y-122400000D03*
%TD*%
D14*
%TO.C,R1*%
X215431324Y-111130000D03*
X215431324Y-118750000D03*
%TD*%
D17*
%TO.C,U18*%
X69381324Y-85730000D03*
D14*
X69381324Y-88270000D03*
X69381324Y-90810000D03*
X69381324Y-93350000D03*
X69381324Y-95890000D03*
X69381324Y-98430000D03*
X69381324Y-100970000D03*
X69381324Y-103510000D03*
X69381324Y-106050000D03*
X69381324Y-108590000D03*
X69381324Y-111130000D03*
X69381324Y-113670000D03*
X69381324Y-116210000D03*
X69381324Y-118750000D03*
X84621324Y-118750000D03*
X84621324Y-116210000D03*
X84621324Y-113670000D03*
X84621324Y-111130000D03*
X84621324Y-108590000D03*
X84621324Y-106050000D03*
X84621324Y-103510000D03*
X84621324Y-100970000D03*
X84621324Y-98430000D03*
X84621324Y-95890000D03*
X84621324Y-93350000D03*
X84621324Y-90810000D03*
X84621324Y-88270000D03*
X84621324Y-85730000D03*
%TD*%
%TO.C,C12*%
X155741324Y-117540000D03*
X155741324Y-112540000D03*
%TD*%
D17*
%TO.C,U12*%
X31281324Y-34930000D03*
D14*
X31281324Y-37470000D03*
X31281324Y-40010000D03*
X31281324Y-42550000D03*
X31281324Y-45090000D03*
X31281324Y-47630000D03*
X31281324Y-50170000D03*
X31281324Y-52710000D03*
X31281324Y-55250000D03*
X31281324Y-57790000D03*
X31281324Y-60330000D03*
X31281324Y-62870000D03*
X31281324Y-65410000D03*
X31281324Y-67950000D03*
X31281324Y-70490000D03*
X31281324Y-73030000D03*
X46521324Y-73030000D03*
X46521324Y-70490000D03*
X46521324Y-67950000D03*
X46521324Y-65410000D03*
X46521324Y-62870000D03*
X46521324Y-60330000D03*
X46521324Y-57790000D03*
X46521324Y-55250000D03*
X46521324Y-52710000D03*
X46521324Y-50170000D03*
X46521324Y-47630000D03*
X46521324Y-45090000D03*
X46521324Y-42550000D03*
X46521324Y-40010000D03*
X46521324Y-37470000D03*
X46521324Y-34930000D03*
%TD*%
D13*
%TO.C,U11*%
X157541324Y-38912500D03*
D14*
X160081324Y-38912500D03*
X162621324Y-38912500D03*
X165161324Y-38912500D03*
X167701324Y-38912500D03*
X170241324Y-38912500D03*
X172781324Y-38912500D03*
X175321324Y-38912500D03*
X177861324Y-38912500D03*
X177861324Y-31292500D03*
X175321324Y-31292500D03*
X172781324Y-31292500D03*
X170241324Y-31292500D03*
X167701324Y-31292500D03*
X165161324Y-31292500D03*
X162621324Y-31292500D03*
X160081324Y-31292500D03*
X157541324Y-31292500D03*
%TD*%
D22*
%TO.C,SW3*%
X219735400Y-98085000D03*
X219735400Y-105095000D03*
D23*
X222225400Y-99335000D03*
X222225400Y-103835000D03*
%TD*%
D14*
%TO.C,R12*%
X207276616Y-37870400D03*
X207276616Y-30250400D03*
%TD*%
D21*
%TO.C,H1*%
X27600000Y-27600000D03*
%TD*%
%TO.C,H3*%
X27600000Y-122400000D03*
%TD*%
D14*
%TO.C,C1*%
X122721324Y-83190000D03*
X127721324Y-83190000D03*
%TD*%
%TO.C,R13*%
X204001324Y-66680000D03*
X196381324Y-66680000D03*
%TD*%
%TO.C,R18*%
X130341324Y-88270000D03*
X122721324Y-88270000D03*
%TD*%
D13*
%TO.C,U7*%
X122721324Y-38912500D03*
D14*
X125261324Y-38912500D03*
X127801324Y-38912500D03*
X130341324Y-38912500D03*
X132881324Y-38912500D03*
X135421324Y-38912500D03*
X137961324Y-38912500D03*
X140501324Y-38912500D03*
X143041324Y-38912500D03*
X145581324Y-38912500D03*
X145581324Y-31292500D03*
X143041324Y-31292500D03*
X140501324Y-31292500D03*
X137961324Y-31292500D03*
X135421324Y-31292500D03*
X132881324Y-31292500D03*
X130341324Y-31292500D03*
X127801324Y-31292500D03*
X125261324Y-31292500D03*
X122721324Y-31292500D03*
%TD*%
%TO.C,C6*%
X115101324Y-61800000D03*
X110101324Y-61800000D03*
%TD*%
D17*
%TO.C,U13*%
X31281324Y-80650000D03*
D14*
X31281324Y-83190000D03*
X31281324Y-85730000D03*
X31281324Y-88270000D03*
X31281324Y-90810000D03*
X31281324Y-93350000D03*
X31281324Y-95890000D03*
X31281324Y-98430000D03*
X31281324Y-100970000D03*
X31281324Y-103510000D03*
X31281324Y-106050000D03*
X31281324Y-108590000D03*
X31281324Y-111130000D03*
X31281324Y-113670000D03*
X31281324Y-116210000D03*
X31281324Y-118750000D03*
X46521324Y-118750000D03*
X46521324Y-116210000D03*
X46521324Y-113670000D03*
X46521324Y-111130000D03*
X46521324Y-108590000D03*
X46521324Y-106050000D03*
X46521324Y-103510000D03*
X46521324Y-100970000D03*
X46521324Y-98430000D03*
X46521324Y-95890000D03*
X46521324Y-93350000D03*
X46521324Y-90810000D03*
X46521324Y-88270000D03*
X46521324Y-85730000D03*
X46521324Y-83190000D03*
X46521324Y-80650000D03*
%TD*%
D17*
%TO.C,U4*%
X107481324Y-95890000D03*
D14*
X107481324Y-98430000D03*
X107481324Y-100970000D03*
X107481324Y-103510000D03*
X107481324Y-106050000D03*
X107481324Y-108590000D03*
X107481324Y-111130000D03*
X107481324Y-113670000D03*
X107481324Y-116210000D03*
X107481324Y-118750000D03*
X115101324Y-118750000D03*
X115101324Y-116210000D03*
X115101324Y-113670000D03*
X115101324Y-111130000D03*
X115101324Y-108590000D03*
X115101324Y-106050000D03*
X115101324Y-103510000D03*
X115101324Y-100970000D03*
X115101324Y-98430000D03*
X115101324Y-95890000D03*
%TD*%
%TO.C,C22*%
X80976324Y-41280000D03*
X80976324Y-36280000D03*
%TD*%
D17*
%TO.C,U14*%
X50331324Y-34930000D03*
D14*
X50331324Y-37470000D03*
X50331324Y-40010000D03*
X50331324Y-42550000D03*
X50331324Y-45090000D03*
X50331324Y-47630000D03*
X50331324Y-50170000D03*
X50331324Y-52710000D03*
X50331324Y-55250000D03*
X50331324Y-57790000D03*
X50331324Y-60330000D03*
X50331324Y-62870000D03*
X50331324Y-65410000D03*
X50331324Y-67950000D03*
X50331324Y-70490000D03*
X50331324Y-73030000D03*
X65571324Y-73030000D03*
X65571324Y-70490000D03*
X65571324Y-67950000D03*
X65571324Y-65410000D03*
X65571324Y-62870000D03*
X65571324Y-60330000D03*
X65571324Y-57790000D03*
X65571324Y-55250000D03*
X65571324Y-52710000D03*
X65571324Y-50170000D03*
X65571324Y-47630000D03*
X65571324Y-45090000D03*
X65571324Y-42550000D03*
X65571324Y-40010000D03*
X65571324Y-37470000D03*
X65571324Y-34930000D03*
%TD*%
%TO.C,R8*%
X141771324Y-67950000D03*
X134151324Y-67950000D03*
%TD*%
%TO.C,C21*%
X65571324Y-76840000D03*
X60571324Y-76840000D03*
%TD*%
%TO.C,C15*%
X162541324Y-42722500D03*
X157541324Y-42722500D03*
%TD*%
D24*
%TO.C,D1*%
X222783400Y-91212500D03*
D25*
X222783400Y-93752500D03*
%TD*%
D14*
%TO.C,R19*%
X210926908Y-37870400D03*
X210926908Y-30250400D03*
%TD*%
%TO.C,C16*%
X211480400Y-87000000D03*
X211480400Y-82000000D03*
%TD*%
%TO.C,R2*%
X215431324Y-100970000D03*
X215431324Y-108590000D03*
%TD*%
%TO.C,C19*%
X46521324Y-76840000D03*
X41521324Y-76840000D03*
%TD*%
%TO.C,R11*%
X180571324Y-42722500D03*
X188191324Y-42722500D03*
%TD*%
%TO.C,R5*%
X130341324Y-75570000D03*
X122721324Y-75570000D03*
%TD*%
D26*
%TO.C,SW6*%
X220715300Y-48197700D03*
X220715300Y-43117700D03*
D27*
X215635300Y-43117700D03*
D26*
X215635300Y-45657700D03*
X215635300Y-48197700D03*
%TD*%
D20*
%TO.C,C26*%
X211590463Y-49047400D03*
D14*
X208090463Y-49047400D03*
%TD*%
D21*
%TO.C,H6*%
X160741324Y-94630000D03*
%TD*%
%TO.C,H5*%
X118897400Y-27600000D03*
%TD*%
D18*
%TO.C,J2*%
X214450000Y-85730000D03*
D19*
X214450000Y-83190000D03*
X214450000Y-80650000D03*
X214450000Y-78110000D03*
X214450000Y-75570000D03*
X214450000Y-73030000D03*
%TD*%
D17*
%TO.C,U15*%
X50331324Y-80650000D03*
D14*
X50331324Y-83190000D03*
X50331324Y-85730000D03*
X50331324Y-88270000D03*
X50331324Y-90810000D03*
X50331324Y-93350000D03*
X50331324Y-95890000D03*
X50331324Y-98430000D03*
X50331324Y-100970000D03*
X50331324Y-103510000D03*
X50331324Y-106050000D03*
X50331324Y-108590000D03*
X50331324Y-111130000D03*
X50331324Y-113670000D03*
X50331324Y-116210000D03*
X50331324Y-118750000D03*
X65571324Y-118750000D03*
X65571324Y-116210000D03*
X65571324Y-113670000D03*
X65571324Y-111130000D03*
X65571324Y-108590000D03*
X65571324Y-106050000D03*
X65571324Y-103510000D03*
X65571324Y-100970000D03*
X65571324Y-98430000D03*
X65571324Y-95890000D03*
X65571324Y-93350000D03*
X65571324Y-90810000D03*
X65571324Y-88270000D03*
X65571324Y-85730000D03*
X65571324Y-83190000D03*
X65571324Y-80650000D03*
%TD*%
D17*
%TO.C,U6*%
X173521324Y-90810000D03*
D14*
X173521324Y-93350000D03*
X173521324Y-95890000D03*
X173521324Y-98430000D03*
X173521324Y-100970000D03*
X173521324Y-103510000D03*
X173521324Y-106050000D03*
X173521324Y-108590000D03*
X173521324Y-111130000D03*
X173521324Y-113670000D03*
X173521324Y-116210000D03*
X173521324Y-118750000D03*
X181141324Y-118750000D03*
X181141324Y-116210000D03*
X181141324Y-113670000D03*
X181141324Y-111130000D03*
X181141324Y-108590000D03*
X181141324Y-106050000D03*
X181141324Y-103510000D03*
X181141324Y-100970000D03*
X181141324Y-98430000D03*
X181141324Y-95890000D03*
X181141324Y-93350000D03*
X181141324Y-90810000D03*
%TD*%
%TO.C,C8*%
X155741324Y-66680000D03*
X160741324Y-66680000D03*
%TD*%
D17*
%TO.C,U8*%
X204001324Y-90810000D03*
D14*
X204001324Y-93350000D03*
X204001324Y-95890000D03*
X204001324Y-98430000D03*
X204001324Y-100970000D03*
X204001324Y-103510000D03*
X204001324Y-106050000D03*
X204001324Y-108590000D03*
X204001324Y-111130000D03*
X204001324Y-113670000D03*
X204001324Y-116210000D03*
X204001324Y-118750000D03*
X211621324Y-118750000D03*
X211621324Y-116210000D03*
X211621324Y-113670000D03*
X211621324Y-111130000D03*
X211621324Y-108590000D03*
X211621324Y-106050000D03*
X211621324Y-103510000D03*
X211621324Y-100970000D03*
X211621324Y-98430000D03*
X211621324Y-95890000D03*
X211621324Y-93350000D03*
X211621324Y-90810000D03*
%TD*%
%TO.C,C5*%
X184951324Y-90810000D03*
X184951324Y-95810000D03*
%TD*%
%TO.C,C17*%
X200191324Y-90810000D03*
X200191324Y-95810000D03*
%TD*%
%TO.C,C23*%
X84621324Y-81920000D03*
X79621324Y-81920000D03*
%TD*%
%TO.C,R20*%
X215431324Y-90810000D03*
X215431324Y-98430000D03*
%TD*%
%TO.C,R6*%
X141771324Y-73030000D03*
X134151324Y-73030000D03*
%TD*%
%TO.C,R14*%
X130341324Y-93350000D03*
X122721324Y-93350000D03*
%TD*%
%TO.C,R7*%
X130341324Y-70490000D03*
X122721324Y-70490000D03*
%TD*%
%TO.C,C9*%
X155741324Y-89540000D03*
X160741324Y-89540000D03*
%TD*%
%TO.C,C4*%
X115101324Y-92280000D03*
X110101324Y-92280000D03*
%TD*%
%TO.C,R10*%
X175321324Y-42722500D03*
X167701324Y-42722500D03*
%TD*%
D17*
%TO.C,U21*%
X88431324Y-45090000D03*
D14*
X88431324Y-47630000D03*
X88431324Y-50170000D03*
X88431324Y-52710000D03*
X88431324Y-55250000D03*
X88431324Y-57790000D03*
X88431324Y-60330000D03*
X88431324Y-62870000D03*
X88431324Y-65410000D03*
X88431324Y-67950000D03*
X88431324Y-70490000D03*
X88431324Y-73030000D03*
X88431324Y-75570000D03*
X88431324Y-78110000D03*
X103671324Y-78110000D03*
X103671324Y-75570000D03*
X103671324Y-73030000D03*
X103671324Y-70490000D03*
X103671324Y-67950000D03*
X103671324Y-65410000D03*
X103671324Y-62870000D03*
X103671324Y-60330000D03*
X103671324Y-57790000D03*
X103671324Y-55250000D03*
X103671324Y-52710000D03*
X103671324Y-50170000D03*
X103671324Y-47630000D03*
X103671324Y-45090000D03*
%TD*%
%TO.C,R3*%
X140797724Y-113751600D03*
X148417724Y-113751600D03*
%TD*%
%TO.C,C20*%
X65571324Y-31120000D03*
X60571324Y-31120000D03*
%TD*%
%TO.C,C2*%
X118911324Y-32390000D03*
X118911324Y-37390000D03*
%TD*%
D22*
%TO.C,SW2*%
X219735400Y-109567500D03*
X219735400Y-116577500D03*
D23*
X222225400Y-110817500D03*
X222225400Y-115317500D03*
%TD*%
D14*
%TO.C,C18*%
X46521324Y-31120000D03*
X41521324Y-31120000D03*
%TD*%
%TO.C,R16*%
X130341324Y-103510000D03*
X122721324Y-103510000D03*
%TD*%
D17*
%TO.C,U5*%
X188761324Y-90810000D03*
D14*
X188761324Y-93350000D03*
X188761324Y-95890000D03*
X188761324Y-98430000D03*
X188761324Y-100970000D03*
X188761324Y-103510000D03*
X188761324Y-106050000D03*
X188761324Y-108590000D03*
X188761324Y-111130000D03*
X188761324Y-113670000D03*
X188761324Y-116210000D03*
X188761324Y-118750000D03*
X196381324Y-118750000D03*
X196381324Y-116210000D03*
X196381324Y-113670000D03*
X196381324Y-111130000D03*
X196381324Y-108590000D03*
X196381324Y-106050000D03*
X196381324Y-103510000D03*
X196381324Y-100970000D03*
X196381324Y-98430000D03*
X196381324Y-95890000D03*
X196381324Y-93350000D03*
X196381324Y-90810000D03*
%TD*%
D21*
%TO.C,H2*%
X222400000Y-27600000D03*
%TD*%
D14*
%TO.C,C24*%
X103671324Y-41280000D03*
X103671324Y-36280000D03*
%TD*%
D28*
%TO.C,Y3*%
X151561324Y-33282500D03*
X151561324Y-38162500D03*
%TD*%
D14*
%TO.C,R4*%
X122721324Y-65410000D03*
X130341324Y-65410000D03*
%TD*%
D17*
%TO.C,U22*%
X88431324Y-85730000D03*
D14*
X88431324Y-88270000D03*
X88431324Y-90810000D03*
X88431324Y-93350000D03*
X88431324Y-95890000D03*
X88431324Y-98430000D03*
X88431324Y-100970000D03*
X88431324Y-103510000D03*
X88431324Y-106050000D03*
X88431324Y-108590000D03*
X88431324Y-111130000D03*
X88431324Y-113670000D03*
X88431324Y-116210000D03*
X88431324Y-118750000D03*
X103671324Y-118750000D03*
X103671324Y-116210000D03*
X103671324Y-113670000D03*
X103671324Y-111130000D03*
X103671324Y-108590000D03*
X103671324Y-106050000D03*
X103671324Y-103510000D03*
X103671324Y-100970000D03*
X103671324Y-98430000D03*
X103671324Y-95890000D03*
X103671324Y-93350000D03*
X103671324Y-90810000D03*
X103671324Y-88270000D03*
X103671324Y-85730000D03*
%TD*%
D15*
%TO.C,SW1*%
X74696324Y-31335000D03*
D14*
X72156324Y-31335000D03*
X72156324Y-38955000D03*
X74696324Y-38955000D03*
%TD*%
D18*
%TO.C,U1*%
X118911324Y-45090000D03*
D19*
X118911324Y-47630000D03*
X118911324Y-50170000D03*
X118911324Y-52710000D03*
X118911324Y-55250000D03*
X118911324Y-57790000D03*
X118911324Y-60330000D03*
X118911324Y-62870000D03*
X118911324Y-65410000D03*
X118911324Y-67950000D03*
X118911324Y-70490000D03*
X118911324Y-73030000D03*
X118911324Y-75570000D03*
X118911324Y-78110000D03*
X118911324Y-80650000D03*
X118911324Y-83190000D03*
X118911324Y-85730000D03*
X118911324Y-88270000D03*
X118911324Y-90810000D03*
X118911324Y-93350000D03*
X118911324Y-95890000D03*
X118911324Y-98430000D03*
X118911324Y-100970000D03*
X118911324Y-103510000D03*
X118911324Y-106050000D03*
X118911324Y-108590000D03*
X118911324Y-111130000D03*
X118911324Y-113670000D03*
X118911324Y-116210000D03*
X118911324Y-118750000D03*
X151931324Y-118750000D03*
X151931324Y-116210000D03*
X151931324Y-113670000D03*
X151931324Y-111130000D03*
X151931324Y-108590000D03*
X151931324Y-106050000D03*
X151931324Y-103510000D03*
X151931324Y-100970000D03*
X151931324Y-98430000D03*
X151931324Y-95890000D03*
X151931324Y-93350000D03*
X151931324Y-90810000D03*
X151931324Y-88270000D03*
X151931324Y-85730000D03*
X151931324Y-83190000D03*
X151931324Y-80650000D03*
X151931324Y-78110000D03*
X151931324Y-75570000D03*
X151931324Y-73030000D03*
X151931324Y-70490000D03*
X151931324Y-67950000D03*
X151931324Y-65410000D03*
X151931324Y-62870000D03*
X151931324Y-60330000D03*
X151931324Y-57790000D03*
X151931324Y-55250000D03*
X151931324Y-52710000D03*
X151931324Y-50170000D03*
X151931324Y-47630000D03*
X151931324Y-45090000D03*
%TD*%
D14*
%TO.C,R17*%
X130341324Y-98430000D03*
X122721324Y-98430000D03*
%TD*%
D17*
%TO.C,U2*%
X107481324Y-34930000D03*
D14*
X107481324Y-37470000D03*
X107481324Y-40010000D03*
X107481324Y-42550000D03*
X107481324Y-45090000D03*
X107481324Y-47630000D03*
X107481324Y-50170000D03*
X107481324Y-52710000D03*
X107481324Y-55250000D03*
X107481324Y-57790000D03*
X115101324Y-57790000D03*
X115101324Y-55250000D03*
X115101324Y-52710000D03*
X115101324Y-50170000D03*
X115101324Y-47630000D03*
X115101324Y-45090000D03*
X115101324Y-42550000D03*
X115101324Y-40010000D03*
X115101324Y-37470000D03*
X115101324Y-34930000D03*
%TD*%
D29*
%TO.C,JP3*%
X218846400Y-80688333D03*
D30*
X218846400Y-81988333D03*
D31*
X218846400Y-83288333D03*
%TD*%
D29*
%TO.C,JP1*%
X218922600Y-56421667D03*
D30*
X218922600Y-57721667D03*
D31*
X218922600Y-59021667D03*
%TD*%
D29*
%TO.C,JP2*%
X218922600Y-61638333D03*
D30*
X218922600Y-62938333D03*
D31*
X218922600Y-64238333D03*
%TD*%
D29*
%TO.C,JP4*%
X218922600Y-75471667D03*
D30*
X218922600Y-76771667D03*
D31*
X218922600Y-78071667D03*
%TD*%
M02*
