%TF.GenerationSoftware,KiCad,Pcbnew,10.0.3*%
%TF.CreationDate,2026-06-21T22:43:20-04:00*%
%TF.ProjectId,J11Hack,4a313148-6163-46b2-9e6b-696361645f70,rev?*%
%TF.SameCoordinates,Original*%
%TF.FileFunction,Legend,Bot*%
%TF.FilePolarity,Positive*%
%FSLAX46Y46*%
G04 Gerber Fmt 4.6, Leading zero omitted, Abs format (unit mm)*
G04 Created by KiCad (PCBNEW 10.0.3) date 2026-06-21 22:43:20*
%MOMM*%
%LPD*%
G01*
G04 APERTURE LIST*
%ADD10C,0.150000*%
%ADD11C,0.120000*%
G04 APERTURE END LIST*
D10*
X216501219Y-81154999D02*
X217215504Y-81154999D01*
X217215504Y-81154999D02*
X217358361Y-81107380D01*
X217358361Y-81107380D02*
X217453600Y-81012142D01*
X217453600Y-81012142D02*
X217501219Y-80869285D01*
X217501219Y-80869285D02*
X217501219Y-80774047D01*
X217501219Y-81631190D02*
X216501219Y-81631190D01*
X216501219Y-81631190D02*
X216501219Y-82012142D01*
X216501219Y-82012142D02*
X216548838Y-82107380D01*
X216548838Y-82107380D02*
X216596457Y-82154999D01*
X216596457Y-82154999D02*
X216691695Y-82202618D01*
X216691695Y-82202618D02*
X216834552Y-82202618D01*
X216834552Y-82202618D02*
X216929790Y-82154999D01*
X216929790Y-82154999D02*
X216977409Y-82107380D01*
X216977409Y-82107380D02*
X217025028Y-82012142D01*
X217025028Y-82012142D02*
X217025028Y-81631190D01*
X216501219Y-82535952D02*
X216501219Y-83154999D01*
X216501219Y-83154999D02*
X216882171Y-82821666D01*
X216882171Y-82821666D02*
X216882171Y-82964523D01*
X216882171Y-82964523D02*
X216929790Y-83059761D01*
X216929790Y-83059761D02*
X216977409Y-83107380D01*
X216977409Y-83107380D02*
X217072647Y-83154999D01*
X217072647Y-83154999D02*
X217310742Y-83154999D01*
X217310742Y-83154999D02*
X217405980Y-83107380D01*
X217405980Y-83107380D02*
X217453600Y-83059761D01*
X217453600Y-83059761D02*
X217501219Y-82964523D01*
X217501219Y-82964523D02*
X217501219Y-82678809D01*
X217501219Y-82678809D02*
X217453600Y-82583571D01*
X217453600Y-82583571D02*
X217405980Y-82535952D01*
X216577419Y-56888333D02*
X217291704Y-56888333D01*
X217291704Y-56888333D02*
X217434561Y-56840714D01*
X217434561Y-56840714D02*
X217529800Y-56745476D01*
X217529800Y-56745476D02*
X217577419Y-56602619D01*
X217577419Y-56602619D02*
X217577419Y-56507381D01*
X217577419Y-57364524D02*
X216577419Y-57364524D01*
X216577419Y-57364524D02*
X216577419Y-57745476D01*
X216577419Y-57745476D02*
X216625038Y-57840714D01*
X216625038Y-57840714D02*
X216672657Y-57888333D01*
X216672657Y-57888333D02*
X216767895Y-57935952D01*
X216767895Y-57935952D02*
X216910752Y-57935952D01*
X216910752Y-57935952D02*
X217005990Y-57888333D01*
X217005990Y-57888333D02*
X217053609Y-57840714D01*
X217053609Y-57840714D02*
X217101228Y-57745476D01*
X217101228Y-57745476D02*
X217101228Y-57364524D01*
X217577419Y-58888333D02*
X217577419Y-58316905D01*
X217577419Y-58602619D02*
X216577419Y-58602619D01*
X216577419Y-58602619D02*
X216720276Y-58507381D01*
X216720276Y-58507381D02*
X216815514Y-58412143D01*
X216815514Y-58412143D02*
X216863133Y-58316905D01*
X216577419Y-62104999D02*
X217291704Y-62104999D01*
X217291704Y-62104999D02*
X217434561Y-62057380D01*
X217434561Y-62057380D02*
X217529800Y-61962142D01*
X217529800Y-61962142D02*
X217577419Y-61819285D01*
X217577419Y-61819285D02*
X217577419Y-61724047D01*
X217577419Y-62581190D02*
X216577419Y-62581190D01*
X216577419Y-62581190D02*
X216577419Y-62962142D01*
X216577419Y-62962142D02*
X216625038Y-63057380D01*
X216625038Y-63057380D02*
X216672657Y-63104999D01*
X216672657Y-63104999D02*
X216767895Y-63152618D01*
X216767895Y-63152618D02*
X216910752Y-63152618D01*
X216910752Y-63152618D02*
X217005990Y-63104999D01*
X217005990Y-63104999D02*
X217053609Y-63057380D01*
X217053609Y-63057380D02*
X217101228Y-62962142D01*
X217101228Y-62962142D02*
X217101228Y-62581190D01*
X216672657Y-63533571D02*
X216625038Y-63581190D01*
X216625038Y-63581190D02*
X216577419Y-63676428D01*
X216577419Y-63676428D02*
X216577419Y-63914523D01*
X216577419Y-63914523D02*
X216625038Y-64009761D01*
X216625038Y-64009761D02*
X216672657Y-64057380D01*
X216672657Y-64057380D02*
X216767895Y-64104999D01*
X216767895Y-64104999D02*
X216863133Y-64104999D01*
X216863133Y-64104999D02*
X217005990Y-64057380D01*
X217005990Y-64057380D02*
X217577419Y-63485952D01*
X217577419Y-63485952D02*
X217577419Y-64104999D01*
X216577419Y-75938333D02*
X217291704Y-75938333D01*
X217291704Y-75938333D02*
X217434561Y-75890714D01*
X217434561Y-75890714D02*
X217529800Y-75795476D01*
X217529800Y-75795476D02*
X217577419Y-75652619D01*
X217577419Y-75652619D02*
X217577419Y-75557381D01*
X217577419Y-76414524D02*
X216577419Y-76414524D01*
X216577419Y-76414524D02*
X216577419Y-76795476D01*
X216577419Y-76795476D02*
X216625038Y-76890714D01*
X216625038Y-76890714D02*
X216672657Y-76938333D01*
X216672657Y-76938333D02*
X216767895Y-76985952D01*
X216767895Y-76985952D02*
X216910752Y-76985952D01*
X216910752Y-76985952D02*
X217005990Y-76938333D01*
X217005990Y-76938333D02*
X217053609Y-76890714D01*
X217053609Y-76890714D02*
X217101228Y-76795476D01*
X217101228Y-76795476D02*
X217101228Y-76414524D01*
X216910752Y-77843095D02*
X217577419Y-77843095D01*
X216529800Y-77605000D02*
X217244085Y-77366905D01*
X217244085Y-77366905D02*
X217244085Y-77985952D01*
%TO.C,JP3*%
D11*
X219146400Y-79938333D02*
X218546400Y-79938333D01*
X220346400Y-80488333D02*
X220346400Y-81088333D01*
X217846400Y-80588333D02*
X217846400Y-83388333D01*
X220046400Y-80788333D02*
X220346400Y-80488333D01*
X220046400Y-80788333D02*
X220346400Y-81088333D01*
X219846400Y-83388333D02*
X219846400Y-80588333D01*
X218546400Y-84038333D02*
X219146400Y-84038333D01*
X217846400Y-80638333D02*
G75*
G02*
X218546400Y-79938333I699999J1D01*
G01*
X219146400Y-79938333D02*
G75*
G02*
X219846400Y-80638333I1J-699999D01*
G01*
X218546400Y-84038333D02*
G75*
G02*
X217846400Y-83338333I0J700000D01*
G01*
X219846400Y-83338333D02*
G75*
G02*
X219146400Y-84038333I-700000J0D01*
G01*
%TO.C,JP1*%
X219222600Y-55671667D02*
X218622600Y-55671667D01*
X220422600Y-56221667D02*
X220422600Y-56821667D01*
X217922600Y-56321667D02*
X217922600Y-59121667D01*
X220122600Y-56521667D02*
X220422600Y-56221667D01*
X220122600Y-56521667D02*
X220422600Y-56821667D01*
X219922600Y-59121667D02*
X219922600Y-56321667D01*
X218622600Y-59771667D02*
X219222600Y-59771667D01*
X217922600Y-56371667D02*
G75*
G02*
X218622600Y-55671667I699999J1D01*
G01*
X219222600Y-55671667D02*
G75*
G02*
X219922600Y-56371667I1J-699999D01*
G01*
X218622600Y-59771667D02*
G75*
G02*
X217922600Y-59071667I0J700000D01*
G01*
X219922600Y-59071667D02*
G75*
G02*
X219222600Y-59771667I-700000J0D01*
G01*
%TO.C,JP2*%
X219222600Y-60888333D02*
X218622600Y-60888333D01*
X220422600Y-61438333D02*
X220422600Y-62038333D01*
X217922600Y-61538333D02*
X217922600Y-64338333D01*
X220122600Y-61738333D02*
X220422600Y-61438333D01*
X220122600Y-61738333D02*
X220422600Y-62038333D01*
X219922600Y-64338333D02*
X219922600Y-61538333D01*
X218622600Y-64988333D02*
X219222600Y-64988333D01*
X217922600Y-61588333D02*
G75*
G02*
X218622600Y-60888333I699999J1D01*
G01*
X219222600Y-60888333D02*
G75*
G02*
X219922600Y-61588333I1J-699999D01*
G01*
X218622600Y-64988333D02*
G75*
G02*
X217922600Y-64288333I0J700000D01*
G01*
X219922600Y-64288333D02*
G75*
G02*
X219222600Y-64988333I-700000J0D01*
G01*
%TO.C,JP4*%
X219222600Y-74721667D02*
X218622600Y-74721667D01*
X220422600Y-75271667D02*
X220422600Y-75871667D01*
X217922600Y-75371667D02*
X217922600Y-78171667D01*
X220122600Y-75571667D02*
X220422600Y-75271667D01*
X220122600Y-75571667D02*
X220422600Y-75871667D01*
X219922600Y-78171667D02*
X219922600Y-75371667D01*
X218622600Y-78821667D02*
X219222600Y-78821667D01*
X217922600Y-75421667D02*
G75*
G02*
X218622600Y-74721667I699999J1D01*
G01*
X219222600Y-74721667D02*
G75*
G02*
X219922600Y-75421667I1J-699999D01*
G01*
X218622600Y-78821667D02*
G75*
G02*
X217922600Y-78121667I0J700000D01*
G01*
X219922600Y-78121667D02*
G75*
G02*
X219222600Y-78821667I-700000J0D01*
G01*
%TD*%
M02*
