M48
; DRILL file KiCad 10.0.3 date 2026-06-21T22:43:23
; FORMAT={-:-/ absolute / metric / decimal}
; #@! TF.CreationDate,2026-06-21T22:43:23-04:00
; #@! TF.GenerationSoftware,Kicad,Pcbnew,10.0.3
; #@! TF.FileFunction,Plated,1,2,PTH
FMAT,2
METRIC
; #@! TA.AperFunction,Plated,PTH,ViaDrill
T1C0.300
; #@! TA.AperFunction,Plated,PTH,ComponentDrill
T2C0.800
; #@! TA.AperFunction,Plated,PTH,ComponentDrill
T3C0.900
; #@! TA.AperFunction,Plated,PTH,ComponentDrill
T4C0.990
; #@! TA.AperFunction,Plated,PTH,ComponentDrill
T5C1.000
; #@! TA.AperFunction,Plated,PTH,ComponentDrill
T6C1.090
; #@! TA.AperFunction,Plated,PTH,ComponentDrill
T7C1.300
; #@! TA.AperFunction,Plated,PTH,ComponentDrill
T8C2.700
%
G90
G05
T1
X32.591Y-81.75
X32.69Y-25.8
X32.981Y-36.37
X33.004Y-84.63
X33.391Y-38.57
X33.411Y-86.83
X33.791Y-41.11
X33.811Y-89.37
X34.191Y-43.65
X34.211Y-92.25
X34.611Y-46.53
X34.611Y-94.45
X35.011Y-49.07
X35.011Y-96.99
X35.411Y-51.61
X35.411Y-99.53
X35.811Y-53.81
X35.811Y-102.41
X36.211Y-56.35
X36.211Y-104.95
X36.611Y-59.207
X36.83Y-107.49
X37.011Y-61.77
X42.504Y-60.33
X42.697Y-106.05
X42.799Y-124.2
X42.904Y-57.79
X43.297Y-103.51
X43.307Y-55.245
X43.697Y-101.016
X43.707Y-52.71
X44.097Y-98.45
X44.107Y-50.17
X44.298Y-47.65
X44.497Y-95.885
X44.907Y-93.396
X45.307Y-90.83
X48.158Y-26.2
X48.311Y-120.091
X48.997Y-26.6
X49.733Y-75.311
X51.595Y-71.707
X52.021Y-68.938
X63.271Y-38.57
X63.281Y-84.29
X63.871Y-86.83
X63.871Y-121.742
X63.881Y-41.11
X64.592Y-123.8
X66.37Y-56.69
X66.573Y-86.57
X66.65Y-61.773
X66.764Y-60.973
X66.954Y-54.41
X67.234Y-49.667
X67.332Y-60.202
X67.335Y-48.13
X67.361Y-53.21
X67.624Y-43.993
X68.097Y-59.233
X68.224Y-41.377
X69.24Y-39.243
X70.366Y-104.358
X70.553Y-98.993
X70.587Y-54.127
X70.835Y-59.253
X70.866Y-121.336
X70.886Y-66.518
X70.891Y-57.353
X70.968Y-69.977
X71.164Y-62.973
X71.192Y-63.951
X71.247Y-51.562
X71.476Y-55.026
X71.568Y-67.894
X71.679Y-120.936
X71.75Y-48.788
X72.015Y-52.705
X72.593Y-46.482
X72.615Y-50.114
X73.203Y-43.409
X73.304Y-85.725
X74.696Y-29.175
X79.731Y-76.86
X80.137Y-34.9
X81.051Y-62.87
X81.102Y-79.629
X81.715Y-73.87
X81.864Y-77.953
X82.315Y-70.866
X82.464Y-75.336
X82.915Y-68.767
X82.915Y-72.923
X82.915Y-83.337
X82.915Y-88.494
X83.083Y-56.09
X83.642Y-123.4
X84.582Y-41.3
X85.531Y-43.383
X85.613Y-63.71
X86.03Y-53.543
X87.274Y-87.478
X87.3Y-82.347
X88.984Y-89.502
X89.185Y-107.531
X89.531Y-87.468
X90.018Y-111.176
X90.131Y-78.461
X90.131Y-84.762
X90.655Y-84.156
X90.729Y-113.563
X91.338Y-116.18
X91.475Y-80.899
X91.872Y-70.46
X91.923Y-43.18
X92.075Y-115.37
X92.675Y-72.19
X92.675Y-112.928
X93.253Y-80.22
X93.275Y-75.59
X93.275Y-110.566
X93.875Y-78.908
X93.875Y-109.09
X94.005Y-118.25
X94.056Y-107.315
X94.183Y-76.556
X94.453Y-104.953
X94.818Y-74.13
X95.075Y-102.67
X95.377Y-71.425
X95.682Y-99.543
X95.758Y-56.794
X95.971Y-69.05
X96.075Y-96.952
X96.164Y-109.69
X96.444Y-112.23
X96.647Y-66.954
X97.168Y-113.665
X97.171Y-69.65
X97.571Y-72.746
X97.971Y-78.156
X97.971Y-83.21
X98.028Y-89.586
X98.323Y-97.663
X98.628Y-58.953
X98.676Y-83.633
X98.796Y-62.03
X99.476Y-83.633
X99.476Y-94.412
X99.571Y-77.242
X99.822Y-38.583
X99.847Y-71.45
X99.949Y-74.73
X100.076Y-119.85
X100.505Y-65.278
X100.508Y-33.071
X100.686Y-117.65
X100.905Y-62.865
X101.076Y-106.05
X101.244Y-32.588
X101.321Y-123.0
X101.33Y-31.793
X101.371Y-33.539
X101.413Y-57.785
X101.476Y-101.47
X101.813Y-55.474
X102.362Y-109.017
X102.398Y-98.693
X102.676Y-92.514
X102.676Y-94.234
X102.679Y-104.35
X102.682Y-89.113
X102.817Y-71.47
X104.369Y-64.11
X104.623Y-71.526
X104.658Y-92.278
X104.663Y-104.35
X104.663Y-101.81
X104.663Y-106.89
X104.757Y-88.986
X104.766Y-112.274
X104.927Y-46.507
X105.008Y-93.7
X105.123Y-97.29
X105.207Y-32.563
X105.569Y-51.232
X105.639Y-82.874
X105.67Y-80.086
X105.918Y-93.7
X105.969Y-54.153
X106.096Y-73.87
X106.122Y-75.259
X106.147Y-76.27
X106.184Y-83.474
X106.288Y-78.826
X106.289Y-51.579
X106.392Y-100.26
X106.415Y-72.446
X106.425Y-71.448
X106.527Y-69.032
X106.569Y-56.185
X107.481Y-61.62
X108.115Y-84.579
X108.465Y-72.38
X108.473Y-76.61
X108.473Y-74.93
X108.697Y-81.309
X108.781Y-106.075
X108.827Y-79.464
X108.855Y-78.588
X108.855Y-83.134
X109.236Y-54.645
X109.245Y-87.147
X109.347Y-47.523
X109.414Y-73.33
X109.439Y-84.734
X109.591Y-64.364
X109.845Y-54.127
X109.845Y-58.903
X110.084Y-48.768
X110.134Y-40.005
X110.134Y-68.15
X110.439Y-87.376
X110.527Y-52.856
X110.566Y-59.919
X110.601Y-74.93
X111.027Y-49.962
X111.189Y-55.255
X111.227Y-25.8
X111.277Y-52.578
X111.412Y-106.89
X111.801Y-59.055
X111.801Y-75.463
X111.812Y-104.953
X111.812Y-111.13
X111.827Y-26.391
X111.887Y-86.004
X112.139Y-55.116
X112.212Y-112.344
X112.234Y-27.079
X112.395Y-77.81
X112.446Y-63.348
X112.547Y-115.011
X112.732Y-83.134
X113.233Y-59.919
X113.395Y-101.524
X113.436Y-93.3
X113.589Y-122.536
X113.822Y-42.32
X114.021Y-120.136
X114.046Y-69.037
X114.056Y-82.617
X114.067Y-50.958
X114.069Y-95.1
X114.109Y-80.01
X114.173Y-54.28
X116.027Y-41.554
X116.062Y-54.219
X116.078Y-51.079
X116.093Y-80.01
X116.134Y-81.91
X116.688Y-31.039
X116.801Y-90.186
X116.84Y-84.43
X116.865Y-91.034
X116.967Y-98.476
X117.043Y-117.653
X117.592Y-46.203
X117.643Y-104.75
X117.643Y-114.198
X117.678Y-56.413
X117.678Y-93.9
X117.729Y-54.254
X117.8Y-86.497
X117.817Y-110.34
X117.923Y-79.68
X117.957Y-51.19
X118.542Y-40.354
X118.567Y-43.34
X119.833Y-79.663
X119.833Y-51.157
X119.833Y-54.263
X120.006Y-95.1
X120.006Y-105.26
X120.006Y-110.34
X120.165Y-114.818
X120.279Y-86.35
X120.396Y-101.702
X120.611Y-39.522
X120.661Y-47.6
X120.661Y-49.098
X121.174Y-42.548
X121.433Y-98.255
X121.504Y-49.657
X121.574Y-43.24
X121.721Y-56.409
X121.742Y-52.705
X122.428Y-55.194
X122.504Y-43.24
X122.562Y-84.48
X123.321Y-85.75
X123.852Y-41.062
X123.901Y-102.26
X124.552Y-96.698
X124.567Y-42.04
X125.095Y-101.651
X125.152Y-51.216
X125.261Y-26.264
X125.752Y-69.266
X125.806Y-106.045
X126.39Y-35.474
X126.695Y-45.04
X127.689Y-42.44
X127.711Y-81.305
X127.801Y-26.716
X130.2Y-85.725
X130.327Y-27.116
X130.353Y-42.84
X130.505Y-113.67
X131.902Y-46.457
X132.105Y-96.901
X132.502Y-44.44
X132.553Y-79.299
X132.766Y-27.516
X132.766Y-43.24
X133.102Y-64.16
X133.401Y-99.22
X135.179Y-81.915
X135.433Y-55.397
X135.89Y-93.345
X136.022Y-95.89
X136.033Y-57.81
X136.033Y-80.569
X136.652Y-101.016
X136.728Y-54.635
X142.037Y-90.957
X143.332Y-114.252
X143.398Y-116.01
X148.209Y-51.562
X148.285Y-47.625
X149.2Y-53.315
X149.311Y-50.216
X149.885Y-105.26
X150.597Y-66.827
X150.673Y-59.182
X150.724Y-40.894
X150.837Y-99.22
X150.837Y-110.34
X150.923Y-114.744
X152.853Y-114.657
X153.026Y-110.34
X153.076Y-99.146
X153.116Y-89.504
X153.349Y-45.161
X153.349Y-47.676
X153.645Y-114.913
X153.721Y-120.536
X153.746Y-33.883
X154.0Y-91.41
X154.245Y-118.237
X154.521Y-120.536
X155.448Y-81.051
X155.727Y-73.177
X155.753Y-52.705
X155.829Y-51.562
X156.21Y-40.945
X157.353Y-107.696
X157.378Y-112.243
X158.267Y-52.705
X159.309Y-102.956
X160.401Y-104.06
X163.449Y-65.837
X163.449Y-89.078
X165.862Y-49.33
X165.964Y-72.679
X166.243Y-100.94
X166.294Y-93.421
X168.377Y-73.879
X168.427Y-49.93
X169.799Y-79.172
X169.799Y-87.519
X170.647Y-91.923
X170.647Y-95.885
X170.866Y-74.479
X170.866Y-87.919
X170.942Y-50.53
X171.171Y-89.256
X171.196Y-117.577
X171.272Y-114.046
X172.161Y-99.136
X172.187Y-114.503
X172.39Y-61.366
X172.39Y-65.913
X173.507Y-44.84
X173.507Y-65.303
X173.507Y-74.97
X173.507Y-84.03
X173.521Y-53.061
X173.634Y-72.679
X174.554Y-99.22
X175.235Y-50.962
X175.478Y-104.942
X175.946Y-44.44
X176.061Y-73.879
X176.073Y-78.054
X176.098Y-65.888
X176.116Y-49.776
X176.682Y-116.256
X176.682Y-120.936
X177.063Y-72.679
X177.19Y-105.994
X178.613Y-75.743
X178.689Y-74.244
X178.765Y-50.362
X178.791Y-66.573
X179.441Y-88.306
X179.441Y-91.65
X179.451Y-102.413
X179.451Y-104.35
X180.086Y-52.162
X180.109Y-99.22
X180.149Y-101.81
X180.594Y-32.537
X181.026Y-74.97
X181.102Y-65.288
X181.153Y-121.336
X181.331Y-49.159
X181.741Y-52.908
X181.741Y-72.079
X181.741Y-83.82
X182.133Y-101.81
X182.448Y-62.001
X182.448Y-97.603
X182.845Y-86.725
X183.058Y-123.0
X183.083Y-49.759
X183.54Y-66.126
X183.566Y-102.413
X183.648Y-98.222
X183.658Y-114.757
X183.744Y-78.029
X183.744Y-83.449
X184.123Y-96.812
X184.218Y-49.768
X184.218Y-53.467
X184.258Y-111.1
X184.633Y-34.522
X184.887Y-73.879
X185.872Y-87.906
X186.03Y-35.052
X186.055Y-108.59
X186.157Y-75.489
X186.182Y-66.726
X186.385Y-50.317
X186.539Y-87.465
X186.619Y-91.65
X186.651Y-95.656
X187.061Y-94.005
X187.096Y-34.122
X187.655Y-121.736
X188.239Y-35.976
X188.747Y-72.079
X188.761Y-64.77
X188.761Y-88.306
X189.687Y-33.722
X191.211Y-64.211
X191.287Y-83.449
X192.253Y-33.147
X192.325Y-106.049
X192.557Y-43.84
X192.67Y-124.2
X193.167Y-106.05
X193.357Y-123.79
X193.411Y-108.674
X193.472Y-25.916
X193.548Y-91.846
X193.802Y-87.62
X193.811Y-111.125
X193.811Y-122.987
X194.056Y-74.479
X194.132Y-55.194
X194.158Y-88.51
X194.615Y-98.4
X195.174Y-99.822
X195.199Y-89.11
X195.308Y-87.62
X196.139Y-51.562
X196.342Y-73.279
X197.896Y-100.97
X198.45Y-88.02
X198.704Y-52.146
X198.882Y-73.431
X201.193Y-51.105
X201.295Y-72.619
X202.108Y-104.242
X202.641Y-46.025
X202.819Y-122.276
X204.013Y-87.274
X204.165Y-79.451
X204.673Y-107.163
X205.06Y-26.316
X205.857Y-26.609
X206.477Y-27.116
X207.366Y-43.231
X208.331Y-28.316
X208.848Y-27.705
X209.38Y-78.13
X209.906Y-75.489
X210.236Y-102.387
X210.845Y-84.353
X211.557Y-80.188
X211.59Y-44.145
X211.59Y-61.722
X212.42Y-83.591
X214.097Y-42.24
X216.56Y-113.767
X217.373Y-59.182
X217.668Y-78.104
X218.846Y-80.688
X218.923Y-56.422
X218.923Y-57.722
X218.923Y-61.638
X218.923Y-75.472
X218.923Y-76.772
T2
X31.281Y-34.93
X31.281Y-37.47
X31.281Y-40.01
X31.281Y-42.55
X31.281Y-45.09
X31.281Y-47.63
X31.281Y-50.17
X31.281Y-52.71
X31.281Y-55.25
X31.281Y-57.79
X31.281Y-60.33
X31.281Y-62.87
X31.281Y-65.41
X31.281Y-67.95
X31.281Y-70.49
X31.281Y-73.03
X31.281Y-80.65
X31.281Y-83.19
X31.281Y-85.73
X31.281Y-88.27
X31.281Y-90.81
X31.281Y-93.35
X31.281Y-95.89
X31.281Y-98.43
X31.281Y-100.97
X31.281Y-103.51
X31.281Y-106.05
X31.281Y-108.59
X31.281Y-111.13
X31.281Y-113.67
X31.281Y-116.21
X31.281Y-118.75
X41.521Y-31.12
X41.521Y-76.84
X46.521Y-31.12
X46.521Y-34.93
X46.521Y-37.47
X46.521Y-40.01
X46.521Y-42.55
X46.521Y-45.09
X46.521Y-47.63
X46.521Y-50.17
X46.521Y-52.71
X46.521Y-55.25
X46.521Y-57.79
X46.521Y-60.33
X46.521Y-62.87
X46.521Y-65.41
X46.521Y-67.95
X46.521Y-70.49
X46.521Y-73.03
X46.521Y-76.84
X46.521Y-80.65
X46.521Y-83.19
X46.521Y-85.73
X46.521Y-88.27
X46.521Y-90.81
X46.521Y-93.35
X46.521Y-95.89
X46.521Y-98.43
X46.521Y-100.97
X46.521Y-103.51
X46.521Y-106.05
X46.521Y-108.59
X46.521Y-111.13
X46.521Y-113.67
X46.521Y-116.21
X46.521Y-118.75
X50.331Y-34.93
X50.331Y-37.47
X50.331Y-40.01
X50.331Y-42.55
X50.331Y-45.09
X50.331Y-47.63
X50.331Y-50.17
X50.331Y-52.71
X50.331Y-55.25
X50.331Y-57.79
X50.331Y-60.33
X50.331Y-62.87
X50.331Y-65.41
X50.331Y-67.95
X50.331Y-70.49
X50.331Y-73.03
X50.331Y-80.65
X50.331Y-83.19
X50.331Y-85.73
X50.331Y-88.27
X50.331Y-90.81
X50.331Y-93.35
X50.331Y-95.89
X50.331Y-98.43
X50.331Y-100.97
X50.331Y-103.51
X50.331Y-106.05
X50.331Y-108.59
X50.331Y-111.13
X50.331Y-113.67
X50.331Y-116.21
X50.331Y-118.75
X60.571Y-31.12
X60.571Y-76.84
X65.571Y-31.12
X65.571Y-34.93
X65.571Y-37.47
X65.571Y-40.01
X65.571Y-42.55
X65.571Y-45.09
X65.571Y-47.63
X65.571Y-50.17
X65.571Y-52.71
X65.571Y-55.25
X65.571Y-57.79
X65.571Y-60.33
X65.571Y-62.87
X65.571Y-65.41
X65.571Y-67.95
X65.571Y-70.49
X65.571Y-73.03
X65.571Y-76.84
X65.571Y-80.65
X65.571Y-83.19
X65.571Y-85.73
X65.571Y-88.27
X65.571Y-90.81
X65.571Y-93.35
X65.571Y-95.89
X65.571Y-98.43
X65.571Y-100.97
X65.571Y-103.51
X65.571Y-106.05
X65.571Y-108.59
X65.571Y-111.13
X65.571Y-113.67
X65.571Y-116.21
X65.571Y-118.75
X69.381Y-45.09
X69.381Y-47.63
X69.381Y-50.17
X69.381Y-52.71
X69.381Y-55.25
X69.381Y-57.79
X69.381Y-60.33
X69.381Y-62.87
X69.381Y-65.41
X69.381Y-67.95
X69.381Y-70.49
X69.381Y-73.03
X69.381Y-75.57
X69.381Y-78.11
X69.381Y-85.73
X69.381Y-88.27
X69.381Y-90.81
X69.381Y-93.35
X69.381Y-95.89
X69.381Y-98.43
X69.381Y-100.97
X69.381Y-103.51
X69.381Y-106.05
X69.381Y-108.59
X69.381Y-111.13
X69.381Y-113.67
X69.381Y-116.21
X69.381Y-118.75
X72.156Y-31.335
X72.156Y-38.955
X74.696Y-31.335
X74.696Y-38.955
X79.621Y-81.92
X80.976Y-36.28
X80.976Y-41.28
X84.621Y-45.09
X84.621Y-47.63
X84.621Y-50.17
X84.621Y-52.71
X84.621Y-55.25
X84.621Y-57.79
X84.621Y-60.33
X84.621Y-62.87
X84.621Y-65.41
X84.621Y-67.95
X84.621Y-70.49
X84.621Y-73.03
X84.621Y-75.57
X84.621Y-78.11
X84.621Y-81.92
X84.621Y-85.73
X84.621Y-88.27
X84.621Y-90.81
X84.621Y-93.35
X84.621Y-95.89
X84.621Y-98.43
X84.621Y-100.97
X84.621Y-103.51
X84.621Y-106.05
X84.621Y-108.59
X84.621Y-111.13
X84.621Y-113.67
X84.621Y-116.21
X84.621Y-118.75
X87.231Y-31.335
X87.231Y-38.955
X88.431Y-45.09
X88.431Y-47.63
X88.431Y-50.17
X88.431Y-52.71
X88.431Y-55.25
X88.431Y-57.79
X88.431Y-60.33
X88.431Y-62.87
X88.431Y-65.41
X88.431Y-67.95
X88.431Y-70.49
X88.431Y-73.03
X88.431Y-75.57
X88.431Y-78.11
X88.431Y-85.73
X88.431Y-88.27
X88.431Y-90.81
X88.431Y-93.35
X88.431Y-95.89
X88.431Y-98.43
X88.431Y-100.97
X88.431Y-103.51
X88.431Y-106.05
X88.431Y-108.59
X88.431Y-111.13
X88.431Y-113.67
X88.431Y-116.21
X88.431Y-118.75
X89.771Y-31.335
X89.771Y-38.955
X92.311Y-31.335
X92.311Y-38.955
X94.851Y-31.335
X94.851Y-38.955
X97.391Y-31.335
X97.391Y-38.955
X98.671Y-81.92
X103.671Y-36.28
X103.671Y-41.28
X103.671Y-45.09
X103.671Y-47.63
X103.671Y-50.17
X103.671Y-52.71
X103.671Y-55.25
X103.671Y-57.79
X103.671Y-60.33
X103.671Y-62.87
X103.671Y-65.41
X103.671Y-67.95
X103.671Y-70.49
X103.671Y-73.03
X103.671Y-75.57
X103.671Y-78.11
X103.671Y-81.92
X103.671Y-85.73
X103.671Y-88.27
X103.671Y-90.81
X103.671Y-93.35
X103.671Y-95.89
X103.671Y-98.43
X103.671Y-100.97
X103.671Y-103.51
X103.671Y-106.05
X103.671Y-108.59
X103.671Y-111.13
X103.671Y-113.67
X103.671Y-116.21
X103.671Y-118.75
X107.481Y-34.93
X107.481Y-37.47
X107.481Y-40.01
X107.481Y-42.55
X107.481Y-45.09
X107.481Y-47.63
X107.481Y-50.17
X107.481Y-52.71
X107.481Y-55.25
X107.481Y-57.79
X107.481Y-65.61
X107.481Y-68.15
X107.481Y-70.69
X107.481Y-73.23
X107.481Y-75.77
X107.481Y-78.31
X107.481Y-80.85
X107.481Y-83.39
X107.481Y-85.93
X107.481Y-88.47
X107.481Y-95.89
X107.481Y-98.43
X107.481Y-100.97
X107.481Y-103.51
X107.481Y-106.05
X107.481Y-108.59
X107.481Y-111.13
X107.481Y-113.67
X107.481Y-116.21
X107.481Y-118.75
X110.101Y-31.12
X110.101Y-61.8
X110.101Y-92.28
X115.101Y-31.12
X115.101Y-34.93
X115.101Y-37.47
X115.101Y-40.01
X115.101Y-42.55
X115.101Y-45.09
X115.101Y-47.63
X115.101Y-50.17
X115.101Y-52.71
X115.101Y-55.25
X115.101Y-57.79
X115.101Y-61.8
X115.101Y-65.61
X115.101Y-68.15
X115.101Y-70.69
X115.101Y-73.23
X115.101Y-75.77
X115.101Y-78.31
X115.101Y-80.85
X115.101Y-83.39
X115.101Y-85.93
X115.101Y-88.47
X115.101Y-92.28
X115.101Y-95.89
X115.101Y-98.43
X115.101Y-100.97
X115.101Y-103.51
X115.101Y-106.05
X115.101Y-108.59
X115.101Y-111.13
X115.101Y-113.67
X115.101Y-116.21
X115.101Y-118.75
X118.911Y-32.39
X118.911Y-37.39
X122.721Y-31.292
X122.721Y-38.913
X122.721Y-65.41
X122.721Y-70.49
X122.721Y-75.57
X122.721Y-83.19
X122.721Y-88.27
X122.721Y-93.35
X122.721Y-98.43
X122.721Y-103.51
X125.261Y-31.292
X125.261Y-38.913
X127.721Y-83.19
X127.801Y-31.292
X127.801Y-38.913
X130.341Y-31.292
X130.341Y-38.913
X130.341Y-65.41
X130.341Y-70.49
X130.341Y-75.57
X130.341Y-88.27
X130.341Y-93.35
X130.341Y-98.43
X130.341Y-103.51
X132.881Y-31.292
X132.881Y-38.913
X134.151Y-67.95
X134.151Y-73.03
X134.151Y-95.89
X135.421Y-31.292
X135.421Y-38.913
X137.961Y-31.292
X137.961Y-38.913
X140.501Y-31.292
X140.501Y-38.913
X140.798Y-113.752
X141.771Y-67.95
X141.771Y-73.03
X141.771Y-95.89
X143.041Y-31.292
X143.041Y-38.913
X143.121Y-80.65
X145.581Y-31.292
X145.581Y-38.913
X148.121Y-80.65
X148.418Y-113.752
X151.561Y-33.282
X151.561Y-38.163
X155.741Y-47.63
X155.741Y-62.87
X155.741Y-66.68
X155.741Y-70.49
X155.741Y-85.73
X155.741Y-89.54
X155.741Y-112.54
X155.741Y-117.54
X157.541Y-31.292
X157.541Y-38.913
X157.541Y-42.722
X158.281Y-47.63
X158.281Y-62.87
X158.281Y-70.49
X158.281Y-85.73
X160.081Y-31.292
X160.081Y-38.913
X160.741Y-66.68
X160.741Y-89.54
X160.821Y-47.63
X160.821Y-62.87
X160.821Y-70.49
X160.821Y-85.73
X160.821Y-102.3
X160.821Y-117.54
X162.541Y-42.722
X162.621Y-31.292
X162.621Y-38.913
X163.361Y-47.63
X163.361Y-62.87
X163.361Y-70.49
X163.361Y-85.73
X165.161Y-31.292
X165.161Y-38.913
X165.901Y-47.63
X165.901Y-62.87
X165.901Y-70.49
X165.901Y-85.73
X167.701Y-31.292
X167.701Y-38.913
X167.701Y-42.722
X168.441Y-47.63
X168.441Y-62.87
X168.441Y-70.49
X168.441Y-85.73
X168.441Y-102.3
X168.441Y-117.54
X170.241Y-31.292
X170.241Y-38.913
X170.981Y-47.63
X170.981Y-62.87
X170.981Y-70.49
X170.981Y-85.73
X172.781Y-31.292
X172.781Y-38.913
X173.521Y-47.63
X173.521Y-62.87
X173.521Y-70.49
X173.521Y-85.73
X173.521Y-90.81
X173.521Y-93.35
X173.521Y-95.89
X173.521Y-98.43
X173.521Y-100.97
X173.521Y-103.51
X173.521Y-106.05
X173.521Y-108.59
X173.521Y-111.13
X173.521Y-113.67
X173.521Y-116.21
X173.521Y-118.75
X175.321Y-31.292
X175.321Y-38.913
X175.321Y-42.722
X176.061Y-47.63
X176.061Y-62.87
X176.061Y-70.49
X176.061Y-85.73
X177.861Y-31.292
X177.861Y-38.913
X178.601Y-47.63
X178.601Y-62.87
X178.601Y-70.49
X178.601Y-85.73
X180.571Y-42.722
X181.141Y-47.63
X181.141Y-62.87
X181.141Y-70.49
X181.141Y-85.73
X181.141Y-90.81
X181.141Y-93.35
X181.141Y-95.89
X181.141Y-98.43
X181.141Y-100.97
X181.141Y-103.51
X181.141Y-106.05
X181.141Y-108.59
X181.141Y-111.13
X181.141Y-113.67
X181.141Y-116.21
X181.141Y-118.75
X183.681Y-47.63
X183.681Y-62.87
X183.681Y-70.49
X183.681Y-85.73
X184.651Y-31.335
X184.651Y-38.955
X184.951Y-90.81
X184.951Y-95.81
X186.221Y-47.63
X186.221Y-62.87
X186.221Y-70.49
X186.221Y-85.73
X187.191Y-31.335
X187.191Y-38.955
X188.191Y-42.722
X188.761Y-47.63
X188.761Y-62.87
X188.761Y-70.49
X188.761Y-85.73
X188.761Y-90.81
X188.761Y-93.35
X188.761Y-95.89
X188.761Y-98.43
X188.761Y-100.97
X188.761Y-103.51
X188.761Y-106.05
X188.761Y-108.59
X188.761Y-111.13
X188.761Y-113.67
X188.761Y-116.21
X188.761Y-118.75
X189.731Y-31.335
X189.731Y-38.955
X191.301Y-47.63
X191.301Y-62.87
X191.301Y-70.49
X191.301Y-85.73
X192.271Y-31.335
X192.271Y-38.955
X193.841Y-47.63
X193.841Y-62.87
X193.841Y-70.49
X193.841Y-85.73
X194.811Y-31.335
X194.811Y-38.955
X196.381Y-47.63
X196.381Y-62.87
X196.381Y-66.68
X196.381Y-70.49
X196.381Y-85.73
X196.381Y-90.81
X196.381Y-93.35
X196.381Y-95.89
X196.381Y-98.43
X196.381Y-100.97
X196.381Y-103.51
X196.381Y-106.05
X196.381Y-108.59
X196.381Y-111.13
X196.381Y-113.67
X196.381Y-116.21
X196.381Y-118.75
X197.351Y-31.335
X197.351Y-38.955
X198.921Y-47.63
X198.921Y-62.87
X198.921Y-70.49
X198.921Y-85.73
X199.891Y-31.335
X199.891Y-38.955
X200.191Y-90.81
X200.191Y-95.81
X201.461Y-47.63
X201.461Y-62.87
X201.461Y-70.49
X201.461Y-85.73
X202.431Y-31.335
X202.431Y-38.955
X204.001Y-42.237
X204.001Y-44.237
X204.001Y-47.63
X204.001Y-62.87
X204.001Y-66.68
X204.001Y-70.49
X204.001Y-85.73
X204.001Y-90.81
X204.001Y-93.35
X204.001Y-95.89
X204.001Y-98.43
X204.001Y-100.97
X204.001Y-103.51
X204.001Y-106.05
X204.001Y-108.59
X204.001Y-111.13
X204.001Y-113.67
X204.001Y-116.21
X204.001Y-118.75
X207.277Y-30.25
X207.277Y-37.87
X208.09Y-49.047
X208.893Y-70.49
X210.893Y-70.49
X210.927Y-30.25
X210.927Y-37.87
X211.48Y-82.0
X211.48Y-87.0
X211.59Y-49.047
X211.621Y-90.81
X211.621Y-93.35
X211.621Y-95.89
X211.621Y-98.43
X211.621Y-100.97
X211.621Y-103.51
X211.621Y-106.05
X211.621Y-108.59
X211.621Y-111.13
X211.621Y-113.67
X211.621Y-116.21
X211.621Y-118.75
X215.431Y-90.81
X215.431Y-98.43
X215.431Y-100.97
X215.431Y-108.59
X215.431Y-111.13
X215.431Y-118.75
T3
X222.783Y-91.212
X222.783Y-93.752
T4
X222.225Y-99.335
X222.225Y-103.835
X222.225Y-110.817
X222.225Y-115.317
T5
X118.911Y-45.09
X118.911Y-47.63
X118.911Y-50.17
X118.911Y-52.71
X118.911Y-55.25
X118.911Y-57.79
X118.911Y-60.33
X118.911Y-62.87
X118.911Y-65.41
X118.911Y-67.95
X118.911Y-70.49
X118.911Y-73.03
X118.911Y-75.57
X118.911Y-78.11
X118.911Y-80.65
X118.911Y-83.19
X118.911Y-85.73
X118.911Y-88.27
X118.911Y-90.81
X118.911Y-93.35
X118.911Y-95.89
X118.911Y-98.43
X118.911Y-100.97
X118.911Y-103.51
X118.911Y-106.05
X118.911Y-108.59
X118.911Y-111.13
X118.911Y-113.67
X118.911Y-116.21
X118.911Y-118.75
X151.931Y-45.09
X151.931Y-47.63
X151.931Y-50.17
X151.931Y-52.71
X151.931Y-55.25
X151.931Y-57.79
X151.931Y-60.33
X151.931Y-62.87
X151.931Y-65.41
X151.931Y-67.95
X151.931Y-70.49
X151.931Y-73.03
X151.931Y-75.57
X151.931Y-78.11
X151.931Y-80.65
X151.931Y-83.19
X151.931Y-85.73
X151.931Y-88.27
X151.931Y-90.81
X151.931Y-93.35
X151.931Y-95.89
X151.931Y-98.43
X151.931Y-100.97
X151.931Y-103.51
X151.931Y-106.05
X151.931Y-108.59
X151.931Y-111.13
X151.931Y-113.67
X151.931Y-116.21
X151.931Y-118.75
X214.45Y-53.98
X214.45Y-56.52
X214.45Y-59.06
X214.45Y-61.6
X214.45Y-64.14
X214.45Y-66.68
X214.45Y-73.03
X214.45Y-75.57
X214.45Y-78.11
X214.45Y-80.65
X214.45Y-83.19
X214.45Y-85.73
T6
X215.635Y-43.118
X215.635Y-45.658
X215.635Y-48.198
X220.715Y-43.118
X220.715Y-48.198
T7
X219.735Y-98.085
X219.735Y-105.095
X219.735Y-109.567
X219.735Y-116.578
T8
X27.6Y-27.6
X27.6Y-122.4
X118.897Y-27.6
X160.741Y-94.63
X222.4Y-27.6
X222.4Y-122.4
T5
G00X214.701Y-35.95
M15
G01X214.701Y-33.95
M16
G05
G00X218.701Y-30.25
M15
G01X216.701Y-30.25
M16
G05
G00X220.701Y-35.95
M15
G01X220.701Y-33.95
M16
G05
M30
